<svg width="17" height="17" viewBox="0 0 17 17" fill="none" xmlns="http://www.w3.org/2000/svg">
<g id="tabler:current-location" clip-path="url(#clip0_2578_85379)">
<g id="Group">
<path id="Vector" d="M6.375 8.5C6.375 9.06358 6.59888 9.60409 6.9974 10.0026C7.39591 10.4011 7.93641 10.625 8.5 10.625C9.06358 10.625 9.60409 10.4011 10.0026 10.0026C10.4011 9.60409 10.625 9.06358 10.625 8.5C10.625 7.93641 10.4011 7.39591 10.0026 6.9974C9.60409 6.59888 9.06358 6.375 8.5 6.375C7.93641 6.375 7.39591 6.59888 6.9974 6.9974C6.59888 7.39591 6.375 7.93641 6.375 8.5Z" stroke="#004f39" stroke-width="1.54545" stroke-linecap="round" stroke-linejoin="round"/>
<path id="Vector_2" d="M2.83366 8.50033C2.83366 10.0032 3.43068 11.4446 4.49339 12.5073C5.55609 13.57 6.99743 14.167 8.50033 14.167M2.83366 8.50033C2.83366 6.99743 3.43068 5.55609 4.49339 4.49339C5.55609 3.43068 6.99743 2.83366 8.50033 2.83366M2.83366 8.50033H1.41699M8.50033 14.167C10.0032 14.167 11.4446 13.57 12.5073 12.5073C13.57 11.4446 14.167 10.0032 14.167 8.50033M8.50033 14.167V15.5837M14.167 8.50033C14.167 6.99743 13.57 5.55609 12.5073 4.49339C11.4446 3.43068 10.0032 2.83366 8.50033 2.83366M14.167 8.50033H15.5837M8.50033 2.83366V1.41699" stroke="#004f39" stroke-width="1.54545" stroke-linecap="round" stroke-linejoin="round"/>
</g>
</g>
<defs>
<clipPath id="clip0_2578_85379">
<rect width="17" height="17" fill="#004f39"/>
</clipPath>
</defs>
</svg>
