<svg width="49" height="47" viewBox="0 0 49 47" fill="none" xmlns="http://www.w3.org/2000/svg">
<g clip-path="url(#clip0_3003_46159)">
<path d="M26.3573 13.834C26.4271 13.7949 26.4837 13.7618 26.5403 13.7287C27.3093 13.2119 28.143 12.8407 29.0394 12.5923C29.5056 12.464 29.9894 12.3755 30.4719 12.3193C30.8498 12.2779 31.2264 12.2688 31.6052 12.2825C32.159 12.2976 32.7099 12.3774 33.2556 12.4992C33.6219 12.574 33.9735 12.687 34.3178 12.8192C34.8438 13.0211 35.3455 13.2576 35.8252 13.5514C36.4852 13.9474 37.076 14.4376 37.5993 14.9896C38.1439 15.5717 38.5981 16.2179 38.9751 16.9222C39.2799 17.5001 39.509 18.1037 39.666 18.7236C39.8548 19.4324 39.9486 20.1597 39.9417 20.8923C39.9347 21.3394 39.9144 21.7925 39.833 22.233C39.778 22.5192 39.7231 22.8053 39.6585 23.0877C39.5419 23.5916 39.3716 24.0639 39.1498 24.5273C39.0242 24.7973 38.889 25.0636 38.7347 25.3226C38.601 25.5566 38.4328 25.7663 38.2932 25.987C37.9522 26.5035 37.5208 26.9414 37.068 27.3491C36.6285 27.7509 36.1271 28.0851 35.6353 28.423C35.1362 28.78 34.6275 29.1333 34.1284 29.4904C31.6003 31.2739 29.0759 33.048 26.5383 34.8279C25.7546 35.3829 24.9614 35.9343 24.1778 36.4893C23.9801 36.6328 23.7705 36.7499 23.5397 36.8368C23.1213 36.9834 22.7014 37.0197 22.274 36.9325C21.654 36.8042 21.1625 36.4838 20.8032 35.9619C18.3034 32.4128 15.8036 28.8636 13.3038 25.3145C12.935 24.7889 12.5529 24.2691 12.1842 23.7435C11.7572 23.1407 11.4266 22.4871 11.1754 21.7982C10.849 20.9048 10.6763 19.9827 10.6537 19.0413C10.6424 18.642 10.6539 18.2404 10.7169 17.8477C10.7484 17.6513 10.774 17.4417 10.8055 17.2453C10.8619 16.9268 10.9338 16.6252 11.0321 16.3119C11.1738 15.8286 11.3596 15.3732 11.5873 14.923C11.7467 14.6221 11.9252 14.3285 12.1037 14.035C12.3307 13.6723 12.5982 13.347 12.8849 13.0291C13.2634 12.6148 13.6786 12.2476 14.1285 11.9046C14.5144 11.6138 14.9313 11.3569 15.3526 11.1455C16.1819 10.7288 17.0605 10.4406 17.9812 10.3003C18.2849 10.2523 18.5909 10.2271 18.8931 10.2115C19.1594 10.204 19.4182 10.2156 19.6904 10.2213C20.2059 10.2217 20.7134 10.3287 21.2151 10.4226C21.421 10.4577 21.6086 10.5407 21.8204 10.5891C22.1507 10.672 22.4626 10.8027 22.7745 10.9334C23.3469 11.1861 23.8781 11.4887 24.3835 11.8583C25.0332 12.3382 25.608 12.899 26.1019 13.5275C26.185 13.6252 26.255 13.7289 26.3404 13.8494L26.3573 13.834Z" fill="white" stroke="#EE3124" stroke-width="5" stroke-linejoin="round"/>
</g>
<defs>
<clipPath id="clip0_3003_46159">
<rect width="37.9334" height="35.218" fill="white" transform="translate(12.6211) rotate(21.0012)"/>
</clipPath>
</defs>
</svg>
