<svg width="36" height="35" viewBox="0 0 36 35" fill="none" xmlns="http://www.w3.org/2000/svg">
<path id="Vector" d="M14.4387 8.04469C14.4774 7.95595 14.5033 7.87984 14.5292 7.80373C14.9172 6.71294 15.4697 5.73756 16.1872 4.82674C16.5586 4.3587 16.9682 3.9036 17.4029 3.49951C17.7354 3.17105 18.1184 2.89375 18.5014 2.61645C19.0632 2.21313 19.6754 1.88639 20.2998 1.62328C20.7204 1.43519 21.1535 1.28531 21.5993 1.14822C22.2615 0.948894 22.9486 0.825993 23.6355 0.753935C24.5894 0.670801 25.5298 0.701989 26.4567 0.872916C27.4344 1.04415 28.3605 1.34219 29.2476 1.77981C29.97 2.12744 30.6411 2.55102 31.2735 3.06335C31.9819 3.62699 32.6008 4.27906 33.1555 5.01971C33.4832 5.47933 33.7982 5.92615 34.0239 6.43599C34.1744 6.7674 34.3377 7.08618 34.4882 7.4176C34.7389 8.00385 34.9259 8.60243 35.0364 9.22596C35.1105 9.58233 35.1718 9.95133 35.2077 10.3202C35.2439 10.6382 35.2418 10.9687 35.2525 11.3119C35.2986 12.0749 35.1796 12.8241 35.0352 13.5732C34.891 14.2969 34.6452 14.9945 34.412 15.7049C34.1787 16.4407 33.9328 17.1637 33.6996 17.8741C32.5079 21.5023 31.3035 25.143 30.1118 28.7711C29.7362 29.9001 29.3607 31.0291 28.9978 32.1709C28.907 32.4627 28.791 32.729 28.6241 32.9949C28.3162 33.4506 27.9201 33.7914 27.4357 34.0172C26.7219 34.3433 26.0097 34.3898 25.2613 34.1437C20.1617 32.46 15.0621 30.7763 9.94966 29.1052C9.2012 28.8591 8.42732 28.6128 7.67886 28.3667C6.81624 28.0818 6.00525 27.6701 5.24556 27.1824C4.27096 26.5027 3.42408 25.7221 2.69247 24.8024C2.38974 24.4192 2.09997 23.998 1.87382 23.5644C1.76075 23.3476 1.63504 23.1181 1.52197 22.9013C1.3462 22.5443 1.19585 22.1874 1.05829 21.818C0.845713 21.2447 0.684134 20.6462 0.586187 20.0355C0.525204 19.6157 0.489642 19.196 0.441447 18.7635C0.393876 18.2293 0.422414 17.721 0.476529 17.1875C0.544367 16.4888 0.688314 15.816 0.883105 15.1435C1.05185 14.5725 1.28407 14.0146 1.54156 13.4823C2.03096 12.443 2.69769 11.5065 3.51616 10.698C3.78472 10.4327 4.05329 10.1674 4.35975 9.94046C4.61521 9.73864 4.88331 9.54962 5.1514 9.36059C5.66217 8.98238 6.24858 8.70633 6.80957 8.43012C7.05178 8.3172 7.29367 8.25513 7.52309 8.15484C7.91814 7.99202 8.3255 7.89282 8.73287 7.79363C9.48398 7.60756 10.2471 7.53597 11.0225 7.52801C12.0268 7.52146 12.992 7.65448 13.9565 7.91462C14.1087 7.9664 14.2483 8.00539 14.4259 8.05732L14.4387 8.04469Z" fill="#EE3124"/>
</svg>
