<svg width="68" height="65" viewBox="0 0 68 65" fill="none" xmlns="http://www.w3.org/2000/svg">
<g clip-path="url(#clip0_3003_46157)">
<path d="M35.9612 12.6537C36.1107 12.5762 36.2291 12.5018 36.3475 12.4274C38.0671 11.3795 39.8825 10.6678 41.8498 10.224C42.8645 9.99903 43.9165 9.83328 44.9465 9.76392C45.7556 9.68476 46.5768 9.73008 47.3981 9.77539C48.5989 9.84641 49.7838 10.0761 50.9156 10.4052C51.6898 10.6122 52.4391 10.8845 53.1913 11.1879C54.3042 11.6445 55.367 12.2317 56.3736 12.8872C57.753 13.8204 58.989 14.8933 60.0535 16.1401C61.1863 17.443 62.1104 18.8606 62.8289 20.424C63.4236 21.6854 63.8657 22.993 64.1583 24.3782C64.4972 25.9159 64.6183 27.4749 64.5558 29.0832C64.4946 30.0632 64.4303 31.0119 64.1763 31.9479C64.0163 32.5605 63.8875 33.17 63.7275 33.7826C63.4234 34.8491 63.0199 35.8625 62.4858 36.8258C62.1952 37.3883 61.8736 37.9539 61.5177 38.4914C61.218 38.9605 60.8531 39.4047 60.4912 39.8799C59.7173 40.961 58.7353 41.8425 57.7192 42.6959C56.7312 43.5152 55.6346 44.188 54.541 44.8919C53.4194 45.6299 52.2947 46.3369 51.2012 47.0408C45.615 50.6348 39.9977 54.2318 34.4115 57.8258C32.6668 58.939 30.9222 60.0522 29.1805 61.1966C28.7381 61.4912 28.2896 61.7236 27.7727 61.8998C26.8574 62.1778 25.9489 62.2039 25.0471 61.978C23.7255 61.636 22.7128 60.9183 21.9717 59.7655C16.9296 51.9019 11.8876 44.0383 6.81437 36.1777C6.07324 35.025 5.29796 33.8442 4.55684 32.6914C3.70409 31.3611 3.06004 29.9161 2.56854 28.4247C1.99721 26.4385 1.709 24.456 1.72893 22.412C1.74008 21.5626 1.81043 20.6761 1.98022 19.8426C2.06512 19.4259 2.14697 18.9781 2.23186 18.5613C2.38576 17.8865 2.57382 17.2398 2.793 16.59C3.13428 15.5827 3.57197 14.5974 4.1091 13.6651C4.48692 13.0312 4.8989 12.4254 5.30784 11.7885C5.82907 11.0149 6.42473 10.3597 7.08262 9.69842C7.94007 8.82911 8.87195 8.07818 9.87215 7.3834C10.7259 6.7972 11.651 6.29827 12.5822 5.86157C14.3824 4.99427 16.3094 4.46015 18.301 4.2653C18.9545 4.20136 19.608 4.13742 20.2706 4.16684C20.8369 4.17428 21.4061 4.21283 21.9754 4.25138C23.0798 4.30042 24.1744 4.57033 25.2348 4.81216C25.6857 4.92513 26.0804 5.10643 26.5002 5.22245C27.2122 5.43554 27.8711 5.74807 28.5301 6.06061C29.7485 6.63258 30.8576 7.37232 31.9136 8.21151C33.2771 9.30337 34.435 10.541 35.4524 11.9495C35.6013 12.1863 35.7471 12.3919 35.9301 12.6568L35.9612 12.6537Z" fill="#EE3124"/>
</g>
<defs>
<clipPath id="clip0_3003_46157">
<rect width="62.1914" height="58.3455" fill="white" transform="translate(0 6.05566) rotate(-5.58794)"/>
</clipPath>
</defs>
</svg>
