<svg width="51" height="48" viewBox="0 0 51 48" fill="none" xmlns="http://www.w3.org/2000/svg">
<g clip-path="url(#clip0_2578_83506)">
<path d="M28.709 8.22429C28.8367 8.1732 28.9389 8.12212 29.0411 8.07104C30.5225 7.35588 32.0549 6.92168 33.6896 6.71735C34.5324 6.61519 35.4008 6.56411 36.2437 6.58965C36.9078 6.58965 37.5718 6.69181 38.2359 6.79398C39.2065 6.94722 40.1515 7.22818 41.0455 7.58576C41.6584 7.81563 42.2459 8.09658 42.8333 8.40308C43.7017 8.86282 44.5191 9.42473 45.2853 10.0377C46.3325 10.9061 47.252 11.8767 48.0182 12.975C48.8355 14.1243 49.4741 15.3503 49.9338 16.6784C50.3169 17.7512 50.5723 18.8495 50.7001 19.9988C50.8533 21.2759 50.8278 22.5529 50.649 23.8555C50.5213 24.6473 50.3936 25.4136 50.1126 26.1543C49.9338 26.6395 49.7806 27.1248 49.6018 27.6101C49.2697 28.453 48.8611 29.2447 48.3503 29.9854C48.0693 30.4196 47.7628 30.8538 47.4308 31.2625C47.1498 31.6201 46.8178 31.9521 46.4857 32.3097C45.7706 33.127 44.9022 33.7656 44.0082 34.3785C43.1398 34.966 42.1948 35.4257 41.2498 35.911C40.2792 36.4218 39.3086 36.9071 38.3636 37.3924C33.5363 39.8699 28.6835 42.3474 23.8562 44.8249C22.3492 45.5912 20.8423 46.3574 19.3354 47.1492C18.9523 47.3535 18.5691 47.5068 18.1349 47.6089C17.3687 47.7622 16.628 47.7111 15.9128 47.4557C14.8657 47.0726 14.0994 46.4085 13.5886 45.4124C10.115 38.6184 6.64137 31.8244 3.14221 25.0304C2.63139 24.0343 2.09502 23.0127 1.5842 22.0166C0.996746 20.8672 0.588086 19.6412 0.307132 18.3897C0.000636466 16.7295 -0.0759873 15.0949 0.102802 13.4347C0.179425 12.7451 0.307132 12.0299 0.511462 11.3659C0.613627 11.0338 0.715792 10.6762 0.817957 10.3442C0.996746 9.80785 1.20108 9.29702 1.43095 8.7862C1.78853 7.99442 2.22273 7.22818 2.73355 6.51302C3.09113 6.02774 3.47425 5.568 3.85737 5.08271C4.34265 4.49526 4.87902 4.00998 5.46647 3.52469C6.23271 2.88616 7.05003 2.3498 7.91843 1.86451C8.65913 1.45585 9.45091 1.12382 10.2427 0.842862C11.7752 0.280954 13.3843 0 15.0189 0C15.5553 0 16.0916 0 16.628 0.0766238C17.0877 0.127706 17.5475 0.20433 18.0072 0.280954C18.9012 0.40866 19.7696 0.715155 20.6124 0.996109C20.97 1.12382 21.2765 1.3026 21.6085 1.43031C22.1705 1.66018 22.6813 1.96668 23.1921 2.27317C24.1371 2.83508 24.98 3.52469 25.7718 4.29093C26.7934 5.28704 27.6363 6.38532 28.3514 7.6113C28.4536 7.81563 28.5558 7.99442 28.6835 8.22429H28.709Z" fill="#F3F0EB"/>
</g>
<defs>
<clipPath id="clip0_2578_83506">
<rect width="50.8016" height="47.66" fill="white"/>
</clipPath>
</defs>
</svg>
