<svg width="68" height="64" viewBox="0 0 68 64" fill="none" xmlns="http://www.w3.org/2000/svg">
<path d="M32.0155 12.6366C32.1184 12.5131 32.2007 12.4101 32.2831 12.3072C33.3534 10.784 34.6502 9.48725 36.1528 8.37573C36.935 7.79939 37.7789 7.28479 38.6434 6.83195C39.3227 6.48203 40.0225 6.19386 40.743 5.94685C41.7927 5.57634 42.8837 5.32934 43.9952 5.16467C44.7362 5.04117 45.4772 5 46.2182 5C47.3503 5 48.4619 5.08234 49.5734 5.28817C51.0966 5.55576 52.558 6.04977 53.9371 6.70845C55.378 7.40829 56.6954 8.29339 57.9098 9.34316C58.8978 10.2077 59.7623 11.1751 60.5033 12.2249C61.3679 13.4187 62.0677 14.7155 62.5823 16.0946C62.8911 16.9386 63.1792 17.8031 63.3439 18.6882C63.4468 19.2645 63.5497 19.8409 63.6321 20.4172C63.7762 21.4464 63.7967 22.455 63.7144 23.4842C63.6732 24.0811 63.6115 24.678 63.5086 25.275C63.4262 25.8101 63.2616 26.3247 63.1586 26.8393C62.8911 28.0538 62.397 29.1859 61.8413 30.2768C61.3061 31.3472 60.6063 32.3352 59.927 33.3232C59.2477 34.3524 58.5479 35.3816 57.8686 36.4108C54.4106 41.5773 50.9525 46.7232 47.4738 51.8897C46.4035 53.4952 45.3126 55.1008 44.2422 56.7063C43.9746 57.118 43.6659 57.4885 43.2954 57.8178C42.6161 58.3942 41.8545 58.7647 40.99 58.9088C39.7344 59.1146 38.5817 58.8676 37.5319 58.1472C30.2864 53.2894 23.041 48.4316 15.7955 43.5739C14.7252 42.8535 13.6342 42.1536 12.5639 41.4332C11.3288 40.6098 10.2379 39.6218 9.27047 38.5103C8.01486 37.0694 7.02684 35.4639 6.30641 33.7143C5.99766 32.9733 5.73007 32.2117 5.5654 31.4295C5.48306 31.0384 5.38014 30.6267 5.29781 30.2356C5.17431 29.5975 5.09197 28.98 5.0508 28.3214C4.96847 27.3127 4.98905 26.3247 5.09197 25.3161C5.17431 24.6369 5.29781 23.9576 5.42131 23.2783C5.58598 22.4344 5.85357 21.6316 6.16233 20.8289C6.574 19.7791 7.08859 18.7911 7.68552 17.8237C8.20011 17.0003 8.79704 16.2181 9.43514 15.5183C10.6907 14.1392 12.1316 12.9659 13.7577 12.0396C14.2929 11.7309 14.8487 11.4633 15.4044 11.2163C15.8984 11.0104 16.3924 10.8458 16.907 10.6605C17.8745 10.29 18.9036 10.1253 19.9122 9.94009C20.3239 9.85776 20.7356 9.87834 21.1679 9.81659C21.8471 9.73425 22.5264 9.75484 23.2056 9.77542C24.4613 9.83717 25.6757 10.0224 26.8901 10.3518C28.4545 10.784 29.9365 11.4221 31.3156 12.2455C31.542 12.369 31.7479 12.5131 31.9949 12.6777L32.0155 12.6366Z" stroke="#EE3124" stroke-width="8.23349" stroke-linejoin="round"/>
</svg>
