<svg width="41" height="37" viewBox="0 0 41 37" fill="none" xmlns="http://www.w3.org/2000/svg">
<path id="Vector" d="M21.5797 7.30746C21.6588 7.26325 21.723 7.22573 21.7871 7.1882C22.6581 6.60284 23.6025 6.18237 24.6178 5.90099C25.1459 5.7557 25.694 5.65538 26.2404 5.59173C26.6686 5.5448 27.0951 5.53454 27.5242 5.55009C28.1515 5.56719 28.7755 5.65759 29.3937 5.79549C29.8086 5.8802 30.2069 6.00824 30.5969 6.15794C31.1927 6.38666 31.761 6.65454 32.3044 6.98742C33.0519 7.43597 33.7212 7.99119 34.3139 8.61645C34.9308 9.27584 35.4452 10.0078 35.8723 10.8056C36.2176 11.4601 36.4771 12.1439 36.655 12.8461C36.8688 13.649 36.9751 14.4728 36.9673 15.3026C36.9593 15.8091 36.9363 16.3223 36.8441 16.8213C36.7818 17.1454 36.7196 17.4695 36.6465 17.7895C36.5144 18.3602 36.3214 18.8952 36.0702 19.4201C35.9279 19.726 35.7748 20.0276 35.6001 20.321C35.4486 20.586 35.258 20.8235 35.0999 21.0735C34.7137 21.6586 34.225 22.1546 33.7121 22.6164C33.2143 23.0716 32.6464 23.4502 32.0893 23.8329C31.5239 24.2373 30.9477 24.6375 30.3823 25.0419C27.5187 27.0622 24.6592 29.0717 21.7847 31.0879C20.8971 31.7166 19.9986 32.3411 19.111 32.9698C18.887 33.1324 18.6497 33.265 18.3881 33.3635C17.9142 33.5296 17.4386 33.5707 16.9545 33.4719C16.2521 33.3265 15.6954 32.9636 15.2885 32.3724C12.4569 28.3522 9.62526 24.332 6.79364 20.3118C6.3759 19.7164 5.94316 19.1277 5.52542 18.5323C5.04181 17.8495 4.6673 17.1092 4.38273 16.3288C4.01304 15.3168 3.81744 14.2723 3.79177 13.206C3.77899 12.7536 3.79203 12.2988 3.86339 11.8539C3.89907 11.6314 3.92808 11.394 3.96376 11.1715C4.02768 10.8108 4.1091 10.4692 4.2205 10.1142C4.38094 9.5668 4.59138 9.051 4.8493 8.54101C5.02986 8.20017 5.23208 7.86765 5.4343 7.53513C5.69146 7.12427 5.99446 6.75586 6.31913 6.39577C6.74785 5.92649 7.21827 5.51049 7.72786 5.12196C8.16501 4.79262 8.63717 4.50159 9.11436 4.2622C10.0538 3.79009 11.0491 3.46373 12.0919 3.30478C12.436 3.25042 12.7825 3.22187 13.1249 3.20416C13.4264 3.19564 13.7197 3.20878 14.0279 3.21525C14.6119 3.21572 15.1868 3.33698 15.755 3.44325C15.9883 3.48309 16.2008 3.57709 16.4407 3.63192C16.8148 3.72582 17.1682 3.87388 17.5215 4.02194C18.1698 4.3081 18.7715 4.65094 19.344 5.06961C20.08 5.61313 20.731 6.24834 21.2904 6.96025C21.3846 7.07099 21.4639 7.1884 21.5606 7.32496L21.5797 7.30746Z" stroke="#069457" stroke-width="6.41088" stroke-linejoin="round"/>
</svg>
