<svg width="68" height="68" viewBox="0 0 68 68" fill="none" xmlns="http://www.w3.org/2000/svg">
<circle cx="34" cy="34" r="34" fill="#EE3124"/>
<path fill-rule="evenodd" clip-rule="evenodd" d="M46.2763 33.3876C45.3874 33.6149 44.4734 33.7299 43.5559 33.7297H43.5285V34.3236C43.5285 36.8114 43.9199 39.2991 44.7382 41.6884L45.7536 44.7345H19.3978V44.7017L20.4104 41.6556C21.2022 39.2804 21.6115 36.7944 21.6229 34.2907V28.2669C21.6229 26.7261 21.9513 25.2208 22.5725 23.8442C23.1938 22.4375 24.0778 21.1922 25.2245 20.1768C26.3713 19.1314 27.7151 18.3432 29.1546 17.8861C30.6271 17.3935 32.1652 17.2293 33.6704 17.3935L33.9988 17.4427C34.4966 16.5516 35.1166 15.7345 35.8407 15.0152C35.2141 14.8483 34.5768 14.7248 33.9332 14.6457C32.0338 14.4486 30.1016 14.6457 28.2679 15.267C26.4342 15.8554 24.7648 16.8379 23.358 18.1489C21.9443 19.426 20.8174 20.9884 20.0519 22.7331C19.2826 24.477 18.881 26.3609 18.8723 28.2669V34.288C18.8683 36.4919 18.5145 38.6813 17.8241 40.7743L16.1875 45.6158L17.4984 47.4166H27.0911C27.0911 48.8562 27.6795 50.2629 28.6949 51.281C29.7075 52.2937 31.117 52.8848 32.5593 52.8848C33.9988 52.8848 35.4056 52.2964 36.4209 51.281C37.4363 50.2657 38.0275 48.8562 38.0275 47.4166H47.6201L48.9283 45.6158L47.3245 40.7716C46.6319 38.6687 46.2781 36.4691 46.2763 34.2551V33.3876ZM32.5593 50.2054C32.9196 50.2029 33.2759 50.1291 33.6075 49.9882C33.9391 49.8473 34.2396 49.6421 34.4915 49.3844C34.7498 49.1354 34.9532 48.8351 35.0885 48.5028C35.2238 48.1705 35.288 47.8135 35.277 47.4549H29.8087C29.8087 48.1747 30.1016 48.8617 30.6271 49.3871C30.8794 49.6441 31.18 49.8486 31.5115 49.989C31.8431 50.1295 32.1992 50.203 32.5593 50.2054Z" fill="#F3F0EB"/>
<path d="M43.5543 30.9923C44.6325 30.9923 45.7002 30.78 46.6963 30.3673C47.6924 29.9547 48.5976 29.3499 49.36 28.5875C50.1224 27.8251 50.7272 26.92 51.1398 25.9238C51.5524 24.9277 51.7648 23.86 51.7648 22.7818C51.7648 21.7036 51.5524 20.6359 51.1398 19.6398C50.7272 18.6436 50.1224 17.7385 49.36 16.9761C48.5976 16.2137 47.6924 15.6089 46.6963 15.1963C45.7002 14.7837 44.6325 14.5713 43.5543 14.5713C41.3767 14.5713 39.2883 15.4363 37.7486 16.9761C36.2088 18.5159 35.3438 20.6042 35.3438 22.7818C35.3438 24.9594 36.2088 27.0477 37.7486 28.5875C39.2883 30.1273 41.3767 30.9923 43.5543 30.9923Z" fill="#069457"/>
</svg>
