<svg width="22" height="16" viewBox="0 0 22 16" fill="none" xmlns="http://www.w3.org/2000/svg">
<path d="M21.5359 2.70445C21.4107 2.23936 21.1655 1.81531 20.825 1.47474C20.4844 1.13417 20.0603 0.889026 19.5953 0.76384C17.8825 0.300293 11 0.300293 11 0.300293C11 0.300293 4.11751 0.300293 2.40475 0.76384C1.93966 0.889026 1.51561 1.13417 1.17504 1.47474C0.83447 1.81531 0.589324 2.23936 0.464138 2.70445C0.144326 4.45121 -0.0108694 6.22412 0.000591168 7.99988C-0.0108694 9.77564 0.144326 11.5486 0.464138 13.2953C0.589324 13.7604 0.83447 14.1844 1.17504 14.525C1.51561 14.8656 1.93966 15.1107 2.40475 15.2359C4.11751 15.6995 11 15.6995 11 15.6995C11 15.6995 17.8825 15.6995 19.5953 15.2359C20.0603 15.1107 20.4844 14.8656 20.825 14.525C21.1655 14.1844 21.4107 13.7604 21.5359 13.2953C21.8557 11.5486 22.0109 9.77564 21.9994 7.99988C22.0109 6.22412 21.8557 4.45121 21.5359 2.70445ZM8.80012 11.2997V4.70006L14.512 7.99988L8.80012 11.2997Z" fill="#F3F0EB"/>
</svg>
