<svg width="68" height="68" viewBox="0 0 68 68" fill="none" xmlns="http://www.w3.org/2000/svg">
<circle cx="34" cy="34" r="34" fill="#EE3124"/>
<path d="M39.0922 38.5866C37.6363 39.1896 36.0759 39.5 34.5 39.5C31.3174 39.5 28.2652 38.2357 26.0147 35.9853C23.7643 33.7348 22.5 30.6826 22.5 27.5C22.5 24.3174 23.7643 21.2652 26.0147 19.0147C28.2652 16.7643 31.3174 15.5 34.5 15.5C36.0759 15.5 37.6363 15.8104 39.0922 16.4134C40.5481 17.0165 41.871 17.9004 42.9853 19.0147C44.0996 20.129 44.9835 21.4519 45.5866 22.9078C46.1896 24.3637 46.5 25.9241 46.5 27.5C46.5 29.0759 46.1896 30.6363 45.5866 32.0922C44.9835 33.5481 44.0996 34.871 42.9853 35.9853C41.871 37.0996 40.5481 37.9835 39.0922 38.5866Z" stroke="#F3F0EB" stroke-width="3"/>
<mask id="mask0_3575_24955" style="mask-type:alpha" maskUnits="userSpaceOnUse" x="0" y="0" width="68" height="68">
<circle cx="34" cy="34" r="34" fill="#EE3124"/>
</mask>
<g mask="url(#mask0_3575_24955)">
<path d="M14.8297 51.2765C15.6055 48.4551 18.1709 46.5 21.097 46.5H46.7538C49.7364 46.5 52.3363 48.5299 53.0597 51.4235L69.0597 115.424C70.0853 119.526 66.9825 123.5 62.7538 123.5H3.49699C-0.794641 123.5 -3.9083 119.414 -2.77035 115.276L14.8297 51.2765Z" stroke="#F3F0EB" stroke-width="3"/>
</g>
</svg>
