<svg width="24" height="24" viewBox="0 0 24 24" fill="none" xmlns="http://www.w3.org/2000/svg">
<path id="Icon awesome-linkedin-in" d="M5.77983 23.1756H1.1528V8.25149H5.77983V23.1756ZM3.46131 6.21559C2.92817 6.21781 2.40634 6.06192 1.96178 5.76762C1.51722 5.47332 1.1699 5.05382 0.963705 4.56216C0.757514 4.0705 0.701716 3.52875 0.803365 3.00538C0.905013 2.48201 1.15954 2.00053 1.53478 1.6218C1.91002 1.24306 2.38913 0.984077 2.91153 0.877581C3.43393 0.771084 3.97618 0.821856 4.46973 1.02348C4.96328 1.2251 5.38598 1.56853 5.68438 2.01034C5.98279 2.45215 6.14352 2.97251 6.14625 3.50565C6.14726 4.22036 5.8655 4.90645 5.36247 5.41416C4.85945 5.92187 4.176 6.20998 3.46131 6.21559ZM23.1275 23.1756H18.5004V15.9099C18.5004 14.1778 18.4654 11.9581 16.0906 11.9581C13.6808 11.9581 13.3119 13.8339 13.3119 15.7848V23.1743H8.68486V8.25149H13.1293V10.2874H13.1943C13.6389 9.52645 14.2816 8.90043 15.054 8.47604C15.8263 8.05165 16.6994 7.84481 17.58 7.87757C22.2708 7.87757 23.1325 10.9664 23.1325 14.9782V23.1768L23.1275 23.1756Z" fill="#004F39"/>
</svg>
