<svg width="10" height="12" viewBox="0 0 10 12" fill="none" xmlns="http://www.w3.org/2000/svg">
<path id="Vector" d="M5 5.93909C5.30208 5.93909 5.5599 5.83503 5.77344 5.6269C5.98698 5.41878 6.09375 5.16751 6.09375 4.8731C6.09375 4.57868 5.98698 4.32741 5.77344 4.11929C5.5599 3.91117 5.30208 3.80711 5 3.80711C4.69792 3.80711 4.4401 3.91117 4.22656 4.11929C4.01302 4.32741 3.90625 4.57868 3.90625 4.8731C3.90625 5.16751 4.01302 5.41878 4.22656 5.6269C4.4401 5.83503 4.69792 5.93909 5 5.93909ZM5.01562 12C4.94271 12 4.875 11.9898 4.8125 11.9695C4.75 11.9492 4.69271 11.9188 4.64063 11.8782C3.08854 10.5482 1.92708 9.31472 1.15625 8.17767C0.385417 7.04061 0 5.9797 0 4.99492C0 3.47208 0.502604 2.25888 1.50781 1.35533C2.51302 0.451777 3.67708 0 5 0C6.32292 0 7.48698 0.451777 8.49219 1.35533C9.4974 2.25888 10 3.47208 10 4.99492C10 5.9797 9.61458 7.04061 8.84375 8.17767C8.07292 9.31472 6.91146 10.5482 5.35937 11.8782C5.30729 11.9188 5.2526 11.9492 5.19531 11.9695C5.13802 11.9898 5.07812 12 5.01562 12Z" fill="#004F39"/>
</svg>
