<svg width="168" height="88" viewBox="0 0 168 88" fill="none" xmlns="http://www.w3.org/2000/svg">
<g clip-path="url(#clip0_3001_22315)">
<path d="M18.0195 16.9102H20.4495" stroke="#099566" stroke-width="4" stroke-linecap="round" stroke-linejoin="round"/>
<path d="M149.031 16.9102H151.461" stroke="#099566" stroke-width="4" stroke-linecap="round" stroke-linejoin="round"/>
<path d="M18.0195 70.79H20.4495" stroke="#099566" stroke-width="4" stroke-linecap="round" stroke-linejoin="round"/>
<path d="M149.031 70.79H151.461" stroke="#099566" stroke-width="4" stroke-linecap="round" stroke-linejoin="round"/>
<path d="M162 2H5.97C3.77743 2 2 3.77743 2 5.97V81.19C2 83.3826 3.77743 85.16 5.97 85.16H162C164.193 85.16 165.97 83.3826 165.97 81.19V5.97C165.97 3.77743 164.193 2 162 2Z" stroke="#099566" stroke-width="4" stroke-linecap="round" stroke-linejoin="round"/>
<path d="M74.6102 54.7999H82.1102V31.3399C82.1102 30.2099 82.1602 29.0799 82.1602 29.0799H82.0602C82.0602 29.0799 81.6502 29.8999 80.3602 31.1899L77.3002 34.1999C77.1102 34.3799 76.8102 34.3799 76.6302 34.1999L74.2002 31.6899C74.0202 31.4999 74.0202 31.1999 74.2102 31.0199L82.4302 23.0499C82.5202 22.9599 82.6402 22.9199 82.7602 22.9199H86.7802C87.0402 22.9199 87.2502 23.1299 87.2502 23.3899V54.8099H94.7002C94.9602 54.8099 95.1702 55.0199 95.1702 55.2799V58.7599C95.1702 59.0199 94.9602 59.2299 94.7002 59.2299H74.6102C74.3502 59.2299 74.1402 59.0199 74.1402 58.7599V55.2799C74.1402 55.0199 74.3502 54.8099 74.6102 54.8099V54.7999Z" fill="#099566"/>
<path d="M46.3681 43.5799C46.3681 28.8299 54.8681 16.0599 67.2281 9.8999H13.2981C11.5181 9.8999 10.0781 11.3399 10.0781 13.1199V74.0399C10.0781 75.8199 11.5181 77.2599 13.2981 77.2599H67.2381C54.8781 71.0999 46.3781 58.3399 46.3781 43.5799H46.3681Z" stroke="#099566" stroke-width="4" stroke-linecap="round" stroke-linejoin="round"/>
<path d="M154.678 9.8999H100.738C113.098 16.0599 121.598 28.8199 121.598 43.5799C121.598 58.3399 113.098 71.0999 100.738 77.2599H154.678C156.458 77.2599 157.898 75.8199 157.898 74.0399V13.1199C157.898 11.3399 156.458 9.8999 154.678 9.8999Z" stroke="#099566" stroke-width="4" stroke-linecap="round" stroke-linejoin="round"/>
<path d="M83.9902 72.9901C100.603 72.9901 114.07 59.5228 114.07 42.9101C114.07 26.2974 100.603 12.8301 83.9902 12.8301C67.3774 12.8301 53.9102 26.2974 53.9102 42.9101C53.9102 59.5228 67.3774 72.9901 83.9902 72.9901Z" stroke="#099566" stroke-width="4" stroke-linecap="round" stroke-linejoin="round"/>
</g>
<defs>
<clipPath id="clip0_3001_22315">
<rect width="167.97" height="87.16" fill="white"/>
</clipPath>
</defs>
</svg>
