<svg width="136" height="120" viewBox="0 0 136 120" fill="none" xmlns="http://www.w3.org/2000/svg">
<g clip-path="url(#clip0_2578_83644)">
<path d="M60.1328 116.312L62.373 115.987" stroke="#099566" stroke-width="4" stroke-linecap="round" stroke-linejoin="round"/>
<path d="M114.312 2.30384L116.571 2.20166" stroke="#099566" stroke-width="4" stroke-linecap="round" stroke-linejoin="round"/>
<path d="M121.529 2.09943L130.48 1.85791L125.758 14.8352L64.985 16.916C64.1671 16.9438 63.3769 16.6466 62.7727 16.0985L48.7461 3.21416L109.259 2.35025" stroke="#099566" stroke-width="4" stroke-linecap="round" stroke-linejoin="round"/>
<path d="M48.7543 3.21436L42.8704 23.6695C42.7031 24.2641 42.3591 24.7843 41.8851 25.1744C38.232 28.212 21.77 41.8581 17.2153 45.3509C12.0842 49.2896 1.85938 44.1712 1.85938 44.1712L48.7543 3.21436Z" stroke="#099566" stroke-width="4" stroke-linejoin="round"/>
<path d="M1.85938 44.18L4.62938 66.2887L7.28785 50.088L48.7543 102.582L134.141 89.4656L84.2718 39.7861L15.3562 46.5395" stroke="#099566" stroke-width="4" stroke-linejoin="round"/>
<path d="M66.9258 115.392L132.737 105.899L134.14 89.4658" stroke="#099566" stroke-width="4" stroke-linecap="round" stroke-linejoin="round"/>
<path d="M4.62891 66.2891L46.5137 118.152C46.5509 118.198 50.3805 117.687 54.7122 117.102" stroke="#099566" stroke-width="4" stroke-linecap="round" stroke-linejoin="round"/>
<path d="M84.2734 39.7863L108.023 15.8755" stroke="#099566" stroke-width="4" stroke-linecap="round" stroke-linejoin="round"/>
<path d="M125.7 14.7793L103.038 36.6743C100.166 39.5447 89.625 37.4918 89.625 37.4918" stroke="#099566" stroke-width="4" stroke-linecap="round" stroke-linejoin="round"/>
<path d="M46.6523 118.319L48.7531 102.583" stroke="#099566" stroke-width="4" stroke-linejoin="round"/>
<path d="M83.082 57.5198L85.1828 40.3438" stroke="#099566" stroke-width="4" stroke-linejoin="round"/>
<mask id="mask0_2578_83644" style="mask-type:luminance" maskUnits="userSpaceOnUse" x="8" y="47" width="127" height="53">
<path d="M8.35547 52.5036L46.1596 100L134.372 88.2491L89.355 47.8032L8.35547 52.5036Z" fill="white"/>
</mask>
<g mask="url(#mask0_2578_83644)">
<path d="M61.5989 104.338C85.0803 104.338 104.116 93.8826 104.116 80.9848C104.116 68.087 85.0803 57.6313 61.5989 57.6313C38.1175 57.6313 19.082 68.087 19.082 80.9848C19.082 93.8826 38.1175 104.338 61.5989 104.338Z" stroke="#099566" stroke-width="3.11" stroke-linejoin="round"/>
<path d="M61.5991 108.128C88.8948 108.128 111.022 95.9758 111.022 80.9848C111.022 65.9939 88.8948 53.8413 61.5991 53.8413C34.3033 53.8413 12.1758 65.9939 12.1758 80.9848C12.1758 95.9758 34.3033 108.128 61.5991 108.128Z" stroke="#099566" stroke-width="3.11" stroke-linejoin="round"/>
<mask id="mask1_2578_83644" style="mask-type:luminance" maskUnits="userSpaceOnUse" x="19" y="57" width="86" height="48">
<path d="M61.5989 104.338C85.0803 104.338 104.116 93.8826 104.116 80.9848C104.116 68.087 85.0803 57.6313 61.5989 57.6313C38.1175 57.6313 19.082 68.087 19.082 80.9848C19.082 93.8826 38.1175 104.338 61.5989 104.338Z" fill="white"/>
</mask>
<g mask="url(#mask1_2578_83644)">
<path d="M38.7778 81.2357C43.0798 81.2357 46.5673 79.3225 46.5673 76.9626C46.5673 74.6026 43.0798 72.6895 38.7778 72.6895C34.4758 72.6895 30.9883 74.6026 30.9883 76.9626C30.9883 79.3225 34.4758 81.2357 38.7778 81.2357Z" fill="#099166"/>
<path d="M48.0746 65.4622C52.3767 65.4622 55.8641 63.5491 55.8641 61.1891C55.8641 58.8292 52.3767 56.916 48.0746 56.916C43.7726 56.916 40.2852 58.8292 40.2852 61.1891C40.2852 63.5491 43.7726 65.4622 48.0746 65.4622Z" fill="#099166"/>
<path d="M69.8637 81.7928C74.1657 81.7928 77.6532 79.8797 77.6532 77.5197C77.6532 75.1597 74.1657 73.2466 69.8637 73.2466C65.5617 73.2466 62.0742 75.1597 62.0742 77.5197C62.0742 79.8797 65.5617 81.7928 69.8637 81.7928Z" fill="#099166"/>
<path d="M64.1723 71.5374C68.4743 71.5374 71.9618 69.6243 71.9618 67.2643C71.9618 64.9044 68.4743 62.9912 64.1723 62.9912C59.8703 62.9912 56.3828 64.9044 56.3828 67.2643C56.3828 69.6243 59.8703 71.5374 64.1723 71.5374Z" fill="#099166"/>
<path d="M88.9731 71.4261C93.2751 71.4261 96.7626 69.513 96.7626 67.153C96.7626 64.793 93.2751 62.8799 88.9731 62.8799C84.6711 62.8799 81.1836 64.793 81.1836 67.153C81.1836 69.513 84.6711 71.4261 88.9731 71.4261Z" fill="#099166"/>
<path d="M99.9887 87.3201C104.291 87.3201 107.778 85.407 107.778 83.047C107.778 80.6871 104.291 78.7739 99.9887 78.7739C95.6867 78.7739 92.1992 80.6871 92.1992 83.047C92.1992 85.407 95.6867 87.3201 99.9887 87.3201Z" fill="#099166"/>
<path d="M67.8637 94.9002C72.1657 94.9002 75.6532 92.9871 75.6532 90.6271C75.6532 88.2671 72.1657 86.354 67.8637 86.354C63.5617 86.354 60.0742 88.2671 60.0742 90.6271C60.0742 92.9871 63.5617 94.9002 67.8637 94.9002Z" fill="#099166"/>
<path d="M92.2075 102.555C96.5095 102.555 99.9969 100.641 99.9969 98.2814C99.9969 95.9214 96.5095 94.0083 92.2075 94.0083C87.9054 94.0083 84.418 95.9214 84.418 98.2814C84.418 100.641 87.9054 102.555 92.2075 102.555Z" fill="#099166"/>
<path d="M42.1528 97.4642C46.4548 97.4642 49.9423 95.551 49.9423 93.1911C49.9423 90.8311 46.4548 88.918 42.1528 88.918C37.8508 88.918 34.3633 90.8311 34.3633 93.1911C34.3633 95.551 37.8508 97.4642 42.1528 97.4642Z" fill="#099166"/>
<path d="M23.1996 87.6824C27.5017 87.6824 30.9891 85.7693 30.9891 83.4093C30.9891 81.0494 27.5017 79.1362 23.1996 79.1362C18.8976 79.1362 15.4102 81.0494 15.4102 83.4093C15.4102 85.7693 18.8976 87.6824 23.1996 87.6824Z" fill="#099166"/>
</g>
</g>
</g>
<defs>
<clipPath id="clip0_2578_83644">
<rect width="136" height="120" fill="white"/>
</clipPath>
</defs>
</svg>
