<svg width="175" height="175" viewBox="0 0 175 175" fill="none" xmlns="http://www.w3.org/2000/svg">
<g clip-path="url(#clip0_2578_83678)">
<path d="M31.515 31.99C31.515 31.99 33.4345 32.563 34.7429 31.3311C35.4686 30.6436 35.6501 29.7364 35.0293 29.0775C33.5682 27.5305 29.5764 31.6558 26.8547 28.791C25.6705 27.54 25.8138 25.7066 26.9693 24.2169L25.8711 23.0519L26.9789 22.0015L28.0771 23.1665C29.1467 22.393 30.7415 21.8296 31.7538 22.9086L32.5369 23.7299L31.0662 25.1241L30.6842 24.723C30.2926 24.3124 29.5096 24.532 28.927 25.0859C28.1726 25.7925 27.9816 26.6902 28.4782 27.2154C29.9775 28.8005 33.7783 24.4747 36.6242 27.4827C37.7892 28.7146 37.8847 30.6627 36.6528 32.2383L37.751 33.4033L36.6433 34.4537L35.5546 33.3078C33.4918 34.7784 31.2763 34.0336 31.2763 34.0336L31.515 32.0091V31.99Z" fill="black" fill-opacity="0.25"/>
<path d="M38.8482 27.5211L40.9587 25.955L36.9287 20.5119C36.6804 20.1777 36.4512 19.8339 36.4512 19.8339L36.4226 19.853C36.4226 19.853 36.4894 20.1681 36.4035 20.722L36.1647 22.0493L34.293 21.7247L34.9997 17.5421L36.6327 16.3389L42.7636 24.6085L44.8741 23.0425L46.0106 24.5799L39.9751 29.049L38.8387 27.5115L38.8482 27.5211Z" fill="black" fill-opacity="0.25"/>
<path d="M43.6633 18.8024C41.9348 15.7466 41.5051 12.7959 44.4082 11.1534C47.3113 9.51092 49.6224 11.4017 51.3509 14.4574C53.0794 17.5132 53.5187 20.5021 50.6156 22.1351C47.7124 23.7775 45.3823 21.8581 43.6538 18.8024H43.6633ZM49.3836 15.5652C48.2186 13.5025 46.8721 12.1083 45.4205 12.9296C43.9689 13.7508 44.4751 15.6225 45.6401 17.6851C46.8243 19.7764 48.1804 21.1897 49.6224 20.3684C51.074 19.5472 50.5583 17.666 49.3741 15.5652H49.3836Z" fill="black" fill-opacity="0.25"/>
<path d="M65.2334 2.70223C68.7095 1.79505 72.0233 3.7431 72.9114 7.12354C73.8186 10.5995 71.9087 13.999 68.4325 14.9062C64.9564 15.8134 61.6235 13.7985 60.7068 10.3226C59.8186 6.95166 61.7572 3.61896 65.2334 2.70223ZM67.8978 12.8818C70.0274 12.3279 71.2688 10.0838 70.6481 7.7156C70.056 5.45242 67.8882 4.17282 65.7586 4.73622C63.629 5.29963 62.3684 7.46732 62.9605 9.7305C63.5812 12.0892 65.7586 13.4356 67.8882 12.8818H67.8978Z" fill="black" fill-opacity="0.25"/>
<path d="M75.1851 2.798L74.0773 2.92214L73.8672 1.02184L80.7812 0.257893C81.6025 0.162401 81.9845 0.487076 82.0705 1.28921L82.271 3.13223L80.256 3.35186L80.1796 2.61656C80.151 2.37783 79.9982 2.25369 79.7594 2.28234L77.4197 2.54017L77.8017 5.96836L81.6789 5.53864L81.889 7.4294L78.0118 7.85912L78.5561 12.7579L76.3215 13.0062L75.1851 2.7789V2.798Z" fill="black" fill-opacity="0.25"/>
<path d="M85.1251 1.92895L84.0078 1.90985L84.0365 0L90.9983 0.114591C91.8195 0.124141 92.1633 0.496562 92.1442 1.2987L92.1156 3.15126L90.091 3.12261V2.38732C90.1101 2.14859 89.9764 2.00535 89.7281 2.00535L87.3789 1.96715L87.3216 5.42399L91.2179 5.49083L91.1893 7.40069L87.2929 7.33384L87.2165 12.2613L84.9628 12.2231L85.1251 1.92895Z" fill="black" fill-opacity="0.25"/>
<path d="M103.845 8.58478L102.011 3.51412C101.868 3.13215 101.782 3.03665 101.409 2.96026L101.027 2.87432L101.438 1.01221L102.565 1.26049C103.338 1.43238 103.644 1.62336 103.93 2.4828L104.924 5.45262C105.191 6.23566 105.344 6.95186 105.344 6.95186H105.382C105.382 6.95186 105.821 6.38845 106.404 5.7773L108.543 3.50457C109.145 2.84567 109.527 2.80747 110.3 2.97936L111.427 3.22764L111.016 5.08975L110.634 5.0038C110.262 4.91786 110.147 4.96561 109.861 5.25208L106.06 9.0718L104.905 14.2761L102.708 13.7891L103.864 8.58478H103.845Z" fill="black" fill-opacity="0.25"/>
<path d="M119.468 5.87281C122.81 7.19061 124.338 10.7238 123.068 13.9706C121.75 17.3128 118.207 18.9267 114.855 17.6184C111.513 16.3102 110.004 12.7101 111.322 9.35829C112.592 6.11154 116.125 4.55501 119.468 5.87281ZM115.629 15.6608C117.673 16.463 120.003 15.3839 120.891 13.1112C121.741 10.9339 120.748 8.623 118.704 7.82086C116.66 7.01872 114.359 8.03094 113.499 10.2082C112.611 12.4809 113.576 14.8587 115.629 15.6608Z" fill="black" fill-opacity="0.25"/>
<path d="M127.346 12.0799C127.471 11.8698 127.423 11.6884 127.222 11.5642L126.592 11.1822L127.576 9.54932L129.457 10.6857C130.164 11.1154 130.269 11.6024 129.858 12.29L126.439 17.9527C125.608 19.3182 126 20.636 127.308 21.4286C128.617 22.2212 129.963 21.9538 130.803 20.5692L134.213 14.916C134.633 14.2285 135.11 14.0948 135.817 14.5149L137.698 15.6513L136.715 17.2842L136.084 16.9023C135.874 16.7781 135.693 16.8259 135.569 17.0264L132.685 21.7915C131.29 24.1024 128.693 24.704 126.239 23.2239C123.756 21.7246 123.078 19.1463 124.472 16.8354L127.356 12.0703L127.346 12.0799Z" fill="black" fill-opacity="0.25"/>
<path d="M139.304 19.3372L138.445 18.621L139.667 17.1504L143.869 20.6454C145.588 22.0778 145.913 24.1309 144.432 25.9071C143.029 27.5973 141.281 27.3299 140.813 27.0816L140.794 27.1103C140.794 27.1103 140.975 27.4827 140.861 27.9697L140.269 30.5385C140.183 30.9395 140.383 31.1496 140.679 31.3884L140.851 31.5316L139.629 33.0022L138.712 32.2478C138.015 31.6653 137.795 31.3024 137.986 30.4621L138.75 27.0912C138.865 26.5564 138.712 26.3272 138.225 25.9166L137.356 25.1909L134.443 28.6955L132.715 27.2535L139.304 19.3372ZM139.973 24.8567C140.842 25.5824 141.816 25.4678 142.589 24.532C143.363 23.6057 143.286 22.6508 142.437 21.9441L141.033 20.7791L138.588 23.7107L139.963 24.8567H139.973Z" fill="black" fill-opacity="0.25"/>
<path d="M146.704 37.6911L147.133 38.2927C147.277 38.4837 147.468 38.5219 147.659 38.3786L155.719 32.6013L156.903 34.2533L154.105 41.9501C153.809 42.7522 153.303 43.774 153.303 43.774L153.322 43.8026C153.322 43.8026 154.076 43.1151 154.649 42.7045L159.195 39.4482C159.854 38.9802 160.341 39.0471 160.828 39.7155L162.108 41.5012L160.561 42.609L160.131 42.0074C159.988 41.8068 159.797 41.7782 159.606 41.9214L151.545 47.6987L150.371 46.0658L153.15 38.3691C153.427 37.5765 153.962 36.5452 153.962 36.5452L153.942 36.5165C153.942 36.5165 153.188 37.2041 152.615 37.6147L148.088 40.8614C147.42 41.3389 146.933 41.2625 146.455 40.5941L145.176 38.8083L146.723 37.7006L146.704 37.6911Z" fill="black" fill-opacity="0.25"/>
<path d="M162.154 45.6265L161.648 44.6334L163.347 43.7644L166.709 50.3248C167.081 51.041 166.919 51.528 166.203 51.9004L164.551 52.7503L163.615 50.9264L164.274 50.5921C164.484 50.4775 164.551 50.2961 164.436 50.086L163.185 47.6414L160.339 49.1024L162.144 52.6261L160.444 53.4951L158.639 49.9714L156.051 51.2988C155.841 51.4134 155.775 51.5948 155.889 51.8049L157.178 54.3164C157.293 54.5264 157.474 54.5933 157.684 54.4787L158.343 54.1445L159.279 55.9684L157.627 56.8183C156.892 57.1907 156.424 57.0283 156.051 56.3122L153.53 51.3847C153.158 50.6494 153.301 50.1911 154.036 49.8091L162.163 45.6456L162.154 45.6265Z" fill="black" fill-opacity="0.25"/>
<path d="M163.75 58.8998L166.471 55.5194C166.748 55.1851 166.739 55.0419 166.615 54.6886L166.443 54.2016L168.238 53.5618L168.706 54.8891C168.983 55.6626 168.916 56.035 168.391 56.6653L166.872 58.451C166.338 59.0621 165.736 59.6733 165.736 59.6733V59.702C165.736 59.702 166.586 59.7497 167.388 59.9025L169.699 60.3418C170.52 60.485 170.797 60.7524 171.074 61.5354L171.542 62.8437L169.747 63.4835L169.575 62.9965C169.451 62.6431 169.355 62.5285 168.935 62.4426L164.685 61.5259L160.121 67.179L159.271 64.8013L161.668 61.946C162.212 61.3158 162.756 60.7428 162.756 60.7428V60.7142C162.756 60.7142 161.954 60.6473 161.152 60.4945L157.494 59.807L156.645 57.4292L163.74 58.9189L163.75 58.8998Z" fill="black" fill-opacity="0.25"/>
<path d="M171.057 69.2131L170.685 67.3796C170.637 67.1409 170.475 67.0358 170.236 67.0836L169.51 67.2364L169.119 65.2979L171.01 64.9159C171.802 64.7536 172.146 64.9636 172.308 65.7753L174.008 74.1118C174.17 74.9235 173.941 75.2482 173.149 75.4106L171.258 75.7925L170.866 73.854L171.592 73.7012C171.831 73.6535 171.936 73.4911 171.888 73.2524L171.516 71.419L161.421 73.4816L160.973 71.2757L171.067 69.2131H171.057Z" fill="black" fill-opacity="0.25"/>
<path d="M174.99 92.2842C174.799 95.8748 171.915 98.434 168.43 98.243C164.839 98.052 162.194 95.1872 162.385 91.5967C162.576 88.0062 165.527 85.447 169.108 85.6475C172.593 85.8385 175.172 88.6937 174.981 92.2842H174.99ZM164.486 91.7113C164.371 93.9076 166.128 95.7793 168.563 95.913C170.894 96.0371 172.784 94.366 172.899 92.1696C173.014 89.9733 171.333 88.1112 168.993 87.9775C166.558 87.8438 164.61 89.5149 164.486 91.7113Z" fill="black" fill-opacity="0.25"/>
<path d="M171.896 101.795L172.125 100.707L173.997 101.108L172.851 106.455C172.383 108.642 170.711 109.884 168.458 109.397C166.309 108.938 165.726 107.267 165.736 106.742H165.698C165.698 106.742 165.449 107.067 164.962 107.191L162.413 107.859C162.021 107.964 161.926 108.251 161.849 108.614L161.801 108.833L159.93 108.432L160.178 107.277C160.369 106.389 160.589 106.026 161.429 105.806L164.771 104.918C165.297 104.765 165.43 104.536 165.564 103.906L165.803 102.798L161.343 101.843L161.811 99.6372L171.886 101.795H171.896ZM167.321 104.947C167.082 106.054 167.636 106.856 168.83 107.114C170.005 107.363 170.816 106.856 171.055 105.777L171.437 103.992L167.703 103.19L167.331 104.937L167.321 104.947Z" fill="black" fill-opacity="0.25"/>
<path d="M169.108 113.455L169.5 112.414L171.286 113.083L169.538 117.733C168.211 121.257 165.25 122.765 161.65 121.409C158.05 120.053 156.789 116.95 158.116 113.426L159.062 110.915C159.348 110.141 159.797 109.941 160.571 110.237L169.108 113.455ZM160.332 112.958L159.94 113.99C159.081 116.272 159.893 118.249 162.471 119.223C165.011 120.178 166.94 119.204 167.79 116.95L168.316 115.565L160.819 112.739C160.59 112.653 160.418 112.739 160.332 112.958Z" fill="black" fill-opacity="0.25"/>
<path d="M164.018 125.802L164.553 124.828L166.224 125.745L162.662 132.2C162.271 132.907 161.784 133.05 161.077 132.659L159.453 131.761L160.437 129.966L161.086 130.319C161.296 130.434 161.487 130.376 161.602 130.166L162.929 127.76L160.131 126.213L158.221 129.679L156.55 128.762L158.46 125.296L155.92 123.892C155.71 123.778 155.519 123.825 155.404 124.045L154.048 126.509C153.934 126.719 153.991 126.91 154.201 127.024L154.85 127.378L153.867 129.173L152.243 128.275C151.517 127.874 151.393 127.397 151.785 126.69L154.459 121.839C154.86 121.113 155.328 120.98 156.044 121.381L164.037 125.783L164.018 125.802Z" fill="black" fill-opacity="0.25"/>
<path d="M158.538 135.227L159.206 134.33L160.744 135.466L157.497 139.859C156.169 141.654 154.135 142.093 152.283 140.728C150.516 139.419 150.678 137.662 150.898 137.185L150.869 137.166C150.869 137.166 150.506 137.366 150.01 137.28L147.412 136.832C147.011 136.765 146.811 136.984 146.581 137.29L146.448 137.471L144.91 136.335L145.617 135.38C146.161 134.645 146.505 134.416 147.364 134.549L150.774 135.122C151.318 135.199 151.538 135.046 151.91 134.53L152.588 133.613L148.921 130.911L150.258 129.097L158.538 135.218V135.227ZM153.066 136.211C152.388 137.128 152.56 138.083 153.543 138.808C154.508 139.524 155.463 139.391 156.112 138.503L157.191 137.032L154.126 134.769L153.066 136.211Z" fill="black" fill-opacity="0.25"/>
<path d="M142.788 147.145C143.829 148.357 143.686 150.162 142.492 151.194C141.279 152.234 139.484 152.11 138.443 150.898C137.411 149.704 137.526 147.89 138.739 146.849C139.933 145.817 141.757 145.951 142.788 147.145Z" fill="black" fill-opacity="0.25"/>
<path d="M127.297 155.51C127.297 155.51 125.588 154.459 124.002 155.319C123.124 155.796 122.713 156.627 123.152 157.429C124.174 159.301 129.092 156.341 130.983 159.807C131.805 161.316 131.203 163.054 129.694 164.209L130.458 165.613L129.112 166.339L128.348 164.935C127.116 165.413 125.425 165.546 124.728 164.238L124.184 163.245L125.97 162.28L126.227 162.767C126.495 163.264 127.316 163.254 128.023 162.872C128.93 162.385 129.35 161.564 129.006 160.934C127.966 159.014 123.172 162.223 121.195 158.585C120.383 157.086 120.794 155.185 122.388 153.982L121.624 152.578L122.971 151.853L123.725 153.247C126.094 152.349 128.051 153.638 128.051 153.638L127.297 155.529V155.51Z" fill="black" fill-opacity="0.25"/>
<path d="M119.066 157.945L116.622 158.909L119.114 165.212C119.267 165.594 119.401 165.985 119.401 165.985H119.429C119.429 165.985 119.448 165.651 119.668 165.135L120.241 163.913L121.96 164.706L120.193 168.564L118.312 169.309L114.521 159.731L112.076 160.695L111.379 158.919L118.36 156.159L119.066 157.935V157.945Z" fill="black" fill-opacity="0.25"/>
<path d="M112.183 165.116C113.062 168.506 112.709 171.476 109.481 172.317C106.253 173.147 104.505 170.722 103.627 167.332C102.748 163.942 103.092 160.934 106.32 160.103C109.548 159.272 111.305 161.726 112.174 165.126L112.183 165.116ZM105.823 166.759C106.415 169.051 107.351 170.751 108.965 170.33C110.579 169.91 110.579 167.981 109.987 165.68C109.385 163.35 108.449 161.641 106.835 162.061C105.222 162.481 105.231 164.429 105.833 166.759H105.823Z" fill="black" fill-opacity="0.25"/>
<path d="M91.0181 167.953L94.0359 172.422C94.2746 172.756 94.3701 172.823 94.7521 172.813H95.1436L95.2009 174.704L94.0454 174.742C93.2528 174.761 92.909 174.656 92.4219 173.892L90.7316 171.257C90.2828 170.569 89.9485 169.901 89.9485 169.901H89.9103C89.9103 169.901 89.6238 170.56 89.2132 171.295L87.6948 174.026C87.2746 174.809 86.9117 174.943 86.1191 174.971L84.9635 175.009L84.9062 173.1H85.2978C85.6798 173.081 85.7753 173.004 85.9854 172.651L88.7357 168.01L88.5734 162.681L90.8271 162.615L90.9895 167.943L91.0181 167.953Z" fill="black" fill-opacity="0.25"/>
<path d="M76.5494 174.427C72.9873 173.978 70.6285 170.932 71.0582 167.466C71.5071 163.904 74.5439 161.459 78.1155 161.898C81.6776 162.347 84.0269 165.46 83.5876 169.022C83.1578 172.489 80.121 174.866 76.5589 174.418L76.5494 174.427ZM77.8481 163.98C75.6612 163.703 73.6749 165.336 73.3788 167.752C73.0923 170.073 74.6299 172.068 76.8072 172.336C78.9846 172.603 80.9709 171.056 81.2574 168.736C81.563 166.31 80.035 164.248 77.8481 163.98Z" fill="black" fill-opacity="0.25"/>
<path d="M67.3937 170.359C67.3269 170.588 67.4128 170.76 67.642 170.827L68.3487 171.037L67.7948 172.861L65.6843 172.221C64.8917 171.982 64.672 171.534 64.9012 170.76L66.8207 164.429C67.2887 162.901 66.582 161.717 65.1209 161.278C63.6597 160.838 62.4183 161.43 61.9503 162.977L60.0404 169.299C59.8016 170.072 59.3719 170.321 58.5793 170.082L56.4688 169.442L57.0226 167.618L57.7293 167.828C57.9585 167.895 58.1304 167.809 58.1973 167.58L59.8112 162.252C60.5943 159.664 62.9531 158.441 65.7034 159.282C68.4824 160.122 69.7716 162.452 68.9885 165.04L67.3746 170.368L67.3937 170.359Z" fill="black" fill-opacity="0.25"/>
<path d="M54.042 166.272L55.0448 166.749L54.2235 168.468L49.2958 166.119C47.2808 165.155 46.4595 163.245 47.4527 161.163C48.3981 159.177 50.1553 159.005 50.671 159.139L50.6901 159.11C50.6901 159.11 50.4227 158.795 50.4131 158.289L50.3558 155.653C50.3367 155.243 50.0884 155.09 49.7542 154.927L49.5536 154.832L50.3749 153.113L51.4445 153.629C52.2658 154.02 52.5618 154.316 52.5905 155.185L52.6764 158.633C52.7051 159.177 52.8961 159.368 53.4691 159.635L54.4909 160.122L56.4486 156.016L58.4827 156.99L54.0516 166.281L54.042 166.272ZM52.0461 161.087C51.0243 160.6 50.1171 160.943 49.5918 162.042C49.0762 163.13 49.3817 164.037 50.3749 164.505L52.0175 165.288L53.6601 161.851L52.0461 161.077V161.087Z" fill="black" fill-opacity="0.25"/>
<path d="M42.3344 150.287L41.771 149.809C41.5896 149.656 41.389 149.666 41.2362 149.857L34.8283 157.429L33.2812 156.121L34.1121 147.976C34.198 147.126 34.4463 146.008 34.4463 146.008L34.4177 145.989C34.4177 145.989 33.8542 146.839 33.3958 147.384L29.786 151.652C29.2608 152.273 28.7642 152.321 28.1339 151.786L26.4531 150.363L27.685 148.902L28.2485 149.379C28.4299 149.532 28.6305 149.523 28.7833 149.332L35.1912 141.759L36.7287 143.058L35.917 151.203C35.8406 152.044 35.5827 153.17 35.5827 153.17L35.6114 153.19C35.6114 153.19 36.1748 152.34 36.6332 151.795L40.2335 147.546C40.7683 146.916 41.2553 146.877 41.8856 147.412L43.5664 148.835L42.3344 150.296V150.287Z" fill="black" fill-opacity="0.25"/>
<path d="M25.4116 146.371L26.1469 147.211L24.7145 148.472L19.8441 142.933C19.3093 142.332 19.3475 141.816 19.9491 141.281L21.3434 140.059L22.6995 141.597L22.1456 142.084C21.9641 142.246 21.9546 142.437 22.1074 142.618L23.9218 144.681L26.3188 142.571L23.7117 139.601L25.1442 138.34L27.7513 141.31L29.9287 139.391C30.1101 139.228 30.1197 139.037 29.9669 138.856L28.1047 136.736C27.9423 136.554 27.7513 136.545 27.5699 136.698L27.016 137.185L25.6695 135.647L27.0637 134.425C27.6845 133.881 28.181 133.928 28.7158 134.53L32.3734 138.684C32.9177 139.305 32.8891 139.792 32.2684 140.336L25.4116 146.362V146.371Z" fill="black" fill-opacity="0.25"/>
<path d="M20.6178 133.919L18.8129 137.863C18.6219 138.264 18.6697 138.388 18.8797 138.703L19.1662 139.133L17.581 140.193L16.7979 139.018C16.3395 138.331 16.3109 137.958 16.6737 137.223L17.7051 135.122C18.068 134.406 18.4978 133.652 18.4978 133.652L18.4787 133.623C18.4787 133.623 17.6574 133.785 16.8361 133.833L14.4868 133.976C13.656 134.034 13.3218 133.843 12.8634 133.165L12.0898 132.009L13.6751 130.949L13.9616 131.379C14.1717 131.694 14.2958 131.78 14.716 131.761L19.0612 131.599L22.0885 125L23.4923 127.101L21.8784 130.462C21.5059 131.207 21.124 131.895 21.124 131.895L21.143 131.923C21.143 131.923 21.9261 131.79 22.7379 131.742L26.4527 131.503L27.8566 133.604L20.6083 133.909L20.6178 133.919Z" fill="black" fill-opacity="0.25"/>
<path d="M10.9905 125.735L11.8117 127.426C11.9168 127.645 12.0982 127.702 12.3179 127.597L12.9864 127.273L13.8459 129.049L12.1173 129.889C11.3916 130.243 11.0096 130.118 10.6467 129.374L6.94135 121.715C6.57846 120.97 6.72171 120.598 7.45704 120.244L9.1951 119.404L10.0546 121.18L9.3861 121.505C9.16645 121.61 9.10915 121.791 9.2142 122.011L10.0259 123.701L19.2988 119.213L20.2824 121.238L11.0096 125.726L10.9905 125.735Z" fill="black" fill-opacity="0.25"/>
<path d="M1.47909 104.316C0.791501 100.793 2.94975 97.6032 6.37813 96.9347C9.90201 96.2472 13.1776 98.3767 13.8652 101.9C14.5528 105.424 12.3277 108.633 8.79423 109.32C5.36585 109.989 2.16667 107.85 1.47909 104.316ZM11.8024 102.301C11.3822 100.143 9.21442 98.7586 6.82697 99.2265C4.53502 99.6754 3.1121 101.757 3.54184 103.915C3.97158 106.073 6.05344 107.468 8.35494 107.019C10.7519 106.551 12.2322 104.46 11.812 102.301H11.8024Z" fill="black" fill-opacity="0.25"/>
<path d="M2.16747 94.3182L2.20567 95.4355L0.295707 95.5023L0.104711 90.0401C0.0283123 87.8056 1.34618 86.1918 3.64768 86.1154C5.84414 86.039 6.80867 87.5191 6.93281 88.0252H6.97101C6.97101 88.0252 7.13336 87.6433 7.5631 87.4045L9.87415 86.1345C10.2275 85.9339 10.2561 85.6379 10.237 85.2655V85.0458L12.1375 84.979L12.1757 86.1631C12.2043 87.0703 12.0897 87.4714 11.3257 87.8915L8.30798 89.5627C7.84004 89.8396 7.76365 90.0974 7.78275 90.7372L7.82094 91.8736L12.3762 91.7112L12.4526 93.9649L2.15792 94.3277L2.16747 94.3182ZM5.83459 90.1452C5.79639 89.0088 5.0706 88.369 3.84823 88.4072C2.64496 88.4454 1.98602 89.1425 2.02422 90.2407L2.09107 92.0646L5.90144 91.9309L5.83459 90.1452Z" fill="black" fill-opacity="0.25"/>
<path d="M2.01674 82.3529L1.8926 83.4606L-0.0078125 83.2505L0.536526 78.3135C0.947167 74.5702 3.43966 72.3739 7.26913 72.8036C11.0986 73.2333 13.0754 75.9167 12.6648 79.66L12.3687 82.3242C12.2828 83.1455 11.9008 83.451 11.0795 83.3555L2.00719 82.3529H2.01674ZM10.6402 80.6626L10.7644 79.574C11.0318 77.1485 9.75208 75.4296 7.02084 75.1336C4.31825 74.8376 2.69478 76.2604 2.42739 78.6573L2.26504 80.1279L10.22 81.0064C10.4588 81.0351 10.6116 80.9109 10.6402 80.6722V80.6626Z" fill="black" fill-opacity="0.25"/>
<path d="M3.88568 69.1367L3.60874 70.2157L1.76562 69.7383L3.61829 62.5954C3.81883 61.8124 4.25812 61.5545 5.04121 61.7551L6.83657 62.223L6.32088 64.1997L5.60464 64.0182C5.37545 63.9609 5.20355 64.0564 5.14625 64.2856L4.45867 66.9499L7.5528 67.752L8.54598 63.9227L10.3891 64.4002L9.39591 68.2295L12.2131 68.9552C12.4423 69.0125 12.6142 68.917 12.6715 68.6878L13.3782 65.9567C13.4355 65.7276 13.34 65.5557 13.1108 65.4984L12.3945 65.3169L12.9102 63.3402L14.7056 63.8082C15.5078 64.0182 15.7465 64.448 15.546 65.231L14.1517 70.5881C13.9416 71.3903 13.5214 71.629 12.7288 71.4285L3.89523 69.1367H3.88568Z" fill="black" fill-opacity="0.25"/>
<path d="M6.88612 58.6325L6.46593 59.6638L4.69922 58.9476L6.76197 53.8865C7.60236 51.8143 9.47412 50.888 11.6037 51.757C13.6378 52.5878 13.9148 54.3353 13.8097 54.8509H13.8384C13.8384 54.8509 14.144 54.574 14.6406 54.5454L17.2667 54.3353C17.6678 54.2971 17.8111 54.0393 17.9543 53.6859L18.0403 53.4758L19.807 54.2016L19.3582 55.2998C19.0144 56.1401 18.7374 56.4552 17.8684 56.5316L14.4305 56.8181C13.8861 56.8754 13.7142 57.0855 13.4659 57.668L13.0362 58.7184L17.2572 60.4373L16.4073 62.519L6.87657 58.6229L6.88612 58.6325ZM11.9475 56.3406C12.3773 55.2902 11.9762 54.4021 10.8493 53.9438C9.73196 53.4854 8.84383 53.8483 8.43319 54.87L7.7456 56.5603L11.279 58.0022L11.9571 56.3502L11.9475 56.3406Z" fill="black" fill-opacity="0.25"/>
<path d="M19.2233 43.2105C17.915 42.2938 17.6094 40.5081 18.5166 39.2094C19.4334 37.9011 21.2097 37.586 22.518 38.5027C23.8168 39.4099 24.1415 41.1956 23.2247 42.5039C22.3175 43.8026 20.5221 44.1177 19.2233 43.2105Z" fill="black" fill-opacity="0.25"/>
</g>
<circle cx="89" cy="87" r="60" fill="#FF3A44"/>
<path d="M64.9704 79.525L68.0204 76.925C68.0204 76.925 69.4704 79.325 71.7954 79.325C72.6954 79.325 73.5954 79 73.5954 78C73.5954 75.9 65.4954 75.85 65.4954 69.975C65.4954 67.225 67.6704 65.425 70.3954 64.95V62.625H73.2454V64.95C75.3204 65.3 77.4454 66.475 77.4454 68.7V70.65H73.4454V69.875C73.4454 69.225 72.6454 68.825 71.8204 68.825C70.9204 68.825 69.9954 69.2 69.9954 69.925C69.9954 72.3 78.0954 71.75 78.0954 77.9C78.0954 80.475 76.1704 82.625 73.2454 83.15V85.475H70.3954V83.2C66.6204 82.6 64.9704 79.525 64.9704 79.525ZM80.3212 83V79.25H84.0712V71.8C84.0712 71.125 84.0962 70.425 84.0962 70.425H84.0462C84.0462 70.425 83.8212 70.925 83.3462 71.375L82.2712 72.35L79.7462 69.65L84.5712 65.125H88.5462V79.25H92.3212V83H80.3212ZM100.583 83.3C95.5075 83.3 93.8575 79.15 93.8575 74.025C93.8575 68.9 95.5075 64.825 100.583 64.825C105.658 64.825 107.308 68.9 107.308 74.025C107.308 79.15 105.658 83.3 100.583 83.3ZM100.583 79.3C102.308 79.3 102.808 76.95 102.808 74.025C102.808 71.125 102.308 68.825 100.583 68.825C98.8575 68.825 98.3575 71.125 98.3575 74.025C98.3575 76.95 98.8575 79.3 100.583 79.3ZM72.9253 106.6C72.9253 102.55 76.1503 99.825 80.1753 99.825C84.2503 99.825 87.4753 102.55 87.4753 106.6C87.4753 110.625 84.2503 113.3 80.2003 113.3C76.1503 113.3 72.9253 110.625 72.9253 106.6ZM77.2753 106.6C77.2753 108.525 78.6253 109.7 80.2003 109.7C81.7753 109.7 83.1253 108.525 83.1253 106.6C83.1253 104.65 81.7753 103.425 80.2003 103.425C78.6253 103.425 77.2753 104.65 77.2753 106.6ZM90.0712 113V103.5H88.4962V100.125H90.0712V99.825C90.0712 95.6 93.8962 95.025 95.9712 95.025C96.7462 95.025 97.2712 95.1 97.2712 95.1V98.75C97.2712 98.75 96.9712 98.7 96.5712 98.7C95.7212 98.7 94.3962 98.875 94.3962 100.05V100.125H99.2462V99.825C99.2462 95.6 103.071 95.025 105.146 95.025C105.921 95.025 106.446 95.1 106.446 95.1V98.75C106.446 98.75 106.146 98.7 105.746 98.7C104.896 98.7 103.571 98.875 103.571 100.05V100.125H105.946V103.5H103.571V113H99.2462V103.5H94.3962V113H90.0712Z" fill="#F3F0EB"/>
<defs>
<clipPath id="clip0_2578_83678">
<rect width="175" height="175" fill="white"/>
</clipPath>
</defs>
</svg>
