<svg width="618" height="109" viewBox="0 0 618 109" fill="none" xmlns="http://www.w3.org/2000/svg">
<rect x="3.72613" y="31.4228" width="610.19" height="48.3694" rx="24.1847" transform="rotate(-0.199156 3.72613 31.4228)" fill="#004F39" stroke="white" stroke-width="2"/>
<path d="M53.6436 59.5334L53.6094 49.6935L52.3094 49.698L52.299 46.698L61.2989 46.6667C62.3189 46.6632 62.7605 47.1017 62.764 48.1217L62.7736 50.8816L59.5736 50.8928L59.5709 50.1128C59.5699 49.8328 59.4094 49.6733 59.1294 49.6743L57.1894 49.681L57.1984 52.281L61.2784 52.2668L61.2888 55.2668L57.2089 55.281L57.2167 57.541C57.2177 57.821 57.3782 57.9804 57.6582 57.9795L59.6382 57.9726C59.9182 57.9716 60.0777 57.8111 60.0767 57.5311L60.074 56.7511L63.274 56.7399L63.2836 59.4999C63.2871 60.5199 62.8486 60.9614 61.8286 60.965L55.1087 60.9883C54.0887 60.9919 53.6472 60.5534 53.6436 59.5334ZM64.2129 57.8767C64.2023 54.8167 68.5811 54.4615 70.1811 54.4559L70.3211 54.4554L70.3206 54.3354C70.3172 53.3554 69.856 52.997 68.996 53C68.556 53.0016 68.0964 53.1032 68.0977 53.5032L68.0993 53.9631L64.8994 53.9743L64.8954 52.8343C64.8874 50.5343 67.807 50.4041 68.987 50.4C72.5869 50.3875 73.7733 52.2234 73.7815 54.5834L73.792 57.5834C73.7929 57.8634 73.9535 58.0228 74.2335 58.0219L74.9935 58.0192L75.0036 60.9192L72.0036 60.9296C71.0036 60.9331 70.6414 60.3144 70.6398 59.8544C70.6396 59.7744 70.6392 59.6744 70.6392 59.6744L70.5992 59.6745C70.5992 59.6745 69.8844 61.177 67.7244 61.1845C65.8044 61.1912 64.22 59.9167 64.2129 57.8767ZM67.6923 57.6846C67.6939 58.1646 67.9953 58.5435 68.6753 58.5412C69.5753 58.538 70.3718 57.5553 70.3689 56.7153L70.3684 56.5553L70.0484 56.5564C68.9484 56.5602 67.6894 56.8646 67.6923 57.6846ZM76.9232 60.9125L76.899 53.9526C76.8981 53.6726 76.7375 53.5131 76.4575 53.5141L75.6975 53.5167L75.6874 50.6168L78.7474 50.6061C79.6874 50.6028 80.2087 50.981 80.212 51.921L80.2139 52.461C80.215 52.781 80.1757 52.9812 80.1757 52.9812L80.2157 52.981C80.6508 51.5795 81.9468 50.415 83.4868 50.4096C83.6868 50.4089 83.8869 50.4483 83.8869 50.4483L83.8987 53.8482C83.8987 53.8482 83.6185 53.7892 83.1985 53.7907C82.3785 53.7935 81.0394 54.0582 80.5448 55.5999C80.4261 55.9803 80.3677 56.4405 80.3697 57.0005L80.3832 60.9005L76.9232 60.9125ZM86.0443 60.8808L86.0201 53.9209C86.0191 53.6409 85.8586 53.4814 85.5786 53.4824L84.8186 53.485L84.8085 50.585L87.8885 50.5743C88.8285 50.5711 89.3301 51.0293 89.3325 51.7293L89.333 51.8693C89.3333 51.9693 89.3138 52.1094 89.3138 52.1094L89.3538 52.1093C89.831 51.3076 90.7876 50.3243 92.6076 50.3179C94.6876 50.3107 96.3109 51.2651 96.321 54.1651L96.3326 57.505C96.3336 57.785 96.4941 57.9445 96.7741 57.9435L97.5341 57.9409L97.5442 60.8408L94.3442 60.852C93.3242 60.8555 92.8827 60.417 92.8792 59.397L92.8632 54.8171C92.8599 53.8571 92.4785 53.4584 91.7185 53.461C90.6385 53.4648 89.9806 54.0671 89.6837 54.9481C89.5451 55.3486 89.4867 55.8088 89.4884 56.3088L89.5043 60.8688L86.0443 60.8808ZM104.937 60.8151L104.898 49.5152L103.598 49.5197L103.588 46.5197L110.528 46.4956C113.308 46.486 115.195 48.5194 115.205 51.3994C115.215 54.2794 113.342 56.3659 110.562 56.3756L108.502 56.3827L108.517 60.8027L104.937 60.8151ZM108.492 53.3827L109.832 53.3781C110.992 53.3741 111.549 52.5521 111.545 51.4121C111.541 50.2721 110.978 49.4941 109.878 49.4979L108.478 49.5028L108.492 53.3827ZM115.669 55.6578C115.658 52.4178 118.23 50.2289 121.45 50.2177C124.71 50.2064 127.298 52.3774 127.309 55.6174C127.32 58.8373 124.748 60.9863 121.508 60.9975C118.268 61.0088 115.68 58.8778 115.669 55.6578ZM119.149 55.6457C119.154 57.1857 120.238 58.1219 121.498 58.1176C122.758 58.1132 123.834 57.1694 123.829 55.6294C123.823 54.0695 122.74 53.0932 121.48 53.0976C120.22 53.102 119.144 54.0857 119.149 55.6457ZM129.683 49.2291L129.674 46.4291L132.574 46.419L132.583 49.219L129.683 49.2291ZM129.458 59.2699L129.439 53.7699C129.438 53.4899 129.278 53.3305 128.998 53.3315L128.238 53.3341L128.228 50.4341L131.428 50.423C132.448 50.4195 132.889 50.8579 132.893 51.8779L132.912 57.3779C132.913 57.6579 133.073 57.8173 133.353 57.8164L134.113 57.8137L134.123 60.7137L130.923 60.7248C129.903 60.7284 129.462 60.2899 129.458 59.2699ZM136.142 60.7067L136.117 53.7467C136.116 53.4667 135.956 53.3073 135.676 53.3083L134.916 53.3109L134.906 50.4109L137.986 50.4002C138.926 50.3969 139.427 50.8552 139.43 51.5552L139.43 51.6952C139.431 51.7952 139.411 51.9353 139.411 51.9353L139.451 51.9351C139.928 51.1335 140.885 50.1501 142.705 50.1438C144.785 50.1366 146.408 51.0909 146.418 53.9909L146.43 57.3309C146.431 57.6109 146.591 57.7703 146.871 57.7694L147.631 57.7667L147.642 60.6667L144.442 60.6778C143.422 60.6814 142.98 60.2429 142.977 59.2229L142.961 54.6429C142.957 53.6829 142.576 53.2843 141.816 53.2869C140.736 53.2907 140.078 53.893 139.781 54.774C139.642 55.1745 139.584 55.6347 139.586 56.1347L139.602 60.6947L136.142 60.7067ZM149.546 56.8601L149.533 53.0601L148.213 53.0647L148.204 50.3647L149.624 50.3598L149.614 47.5798L152.974 47.5681L152.984 50.3481L155.144 50.3406L155.153 53.0406L152.993 53.0481L153.005 56.388C153.009 57.548 154.189 57.7039 154.849 57.7016C155.129 57.7007 155.309 57.68 155.309 57.68L155.32 60.68C155.32 60.68 154.94 60.7413 154.38 60.7433C152.74 60.749 149.558 60.32 149.546 56.8601ZM156.343 58.9965L157.875 56.7711C157.875 56.7711 159.32 58.2461 160.9 58.2406C161.4 58.2389 161.68 58.0979 161.679 57.7379C161.676 56.8779 156.515 56.6158 156.503 53.2759C156.495 51.0559 158.552 50.0887 160.732 50.0811C162.412 50.0753 164.734 50.5472 164.74 52.4072L164.744 53.6272L161.744 53.6376L161.743 53.1376C161.742 52.8576 161.301 52.6592 160.801 52.6609C160.321 52.6626 159.882 52.8241 159.883 53.1441C159.886 54.2041 165.106 54.046 165.118 57.5059C165.125 59.5859 163.309 60.8522 160.91 60.8606C157.95 60.8709 156.343 58.9965 156.343 58.9965Z" fill="#F3F0EB"/>
<path d="M240.644 59.5334L240.609 49.6935L239.309 49.698L239.299 46.698L245.179 46.6776C249.679 46.6619 252.568 49.2719 252.584 53.7719C252.599 58.2719 249.729 60.9619 245.229 60.9775L242.109 60.9883C241.089 60.9919 240.647 60.5534 240.644 59.5334ZM244.217 57.541C244.218 57.821 244.378 57.9804 244.658 57.9795L245.078 57.978C247.438 57.9698 248.873 56.5248 248.864 53.7848C248.854 51.0648 247.349 49.6701 245.049 49.6781L244.189 49.681L244.217 57.541ZM255.082 49.4432L255.072 46.6432L257.972 46.6331L257.982 49.4331L255.082 49.4432ZM254.857 59.484L254.838 53.9841C254.837 53.7041 254.676 53.5446 254.396 53.5456L253.636 53.5482L253.626 50.6482L256.826 50.6371C257.846 50.6336 258.288 51.072 258.291 52.092L258.311 57.592C258.312 57.872 258.472 58.0315 258.752 58.0305L259.512 58.0278L259.522 60.9278L256.322 60.9389C255.302 60.9425 254.861 60.504 254.857 59.484ZM260.375 59.2848L261.907 57.0595C261.907 57.0595 263.352 58.5345 264.932 58.529C265.432 58.5273 265.712 58.3863 265.71 58.0263C265.707 57.1663 260.546 56.9042 260.535 53.5643C260.527 51.3443 262.584 50.3771 264.764 50.3695C266.444 50.3637 268.765 50.8356 268.772 52.6956L268.776 53.9156L265.776 53.926L265.774 53.426C265.773 53.146 265.333 52.9476 264.833 52.9493C264.353 52.951 263.913 53.1125 263.914 53.4325C263.918 54.4925 269.138 54.3344 269.15 57.7943C269.157 59.8743 267.341 61.1406 264.941 61.149C261.981 61.1593 260.375 59.2848 260.375 59.2848ZM270.267 55.7304C270.257 53.0105 272.168 50.3438 276.068 50.3302C277.508 50.3252 279.87 50.877 279.876 52.737L279.881 54.157L276.881 54.1674L276.879 53.6274C276.878 53.3074 276.498 53.1888 276.078 53.1902C274.618 53.1953 273.742 54.2984 273.747 55.6783C273.753 57.4383 275.075 58.1337 276.355 58.1293C277.835 58.1241 279.19 56.7794 279.19 56.7794L280.578 59.0946C280.578 59.0946 278.965 61.1002 276.025 61.1105C272.345 61.1232 270.277 58.5704 270.267 55.7304ZM281.185 55.7325C281.173 52.4925 283.746 50.3036 286.966 50.2924C290.226 50.281 292.813 52.452 292.825 55.692C292.836 58.912 290.263 61.061 287.023 61.0722C283.783 61.0835 281.196 58.9525 281.185 55.7325ZM284.665 55.7204C284.67 57.2604 285.753 58.1966 287.013 58.1922C288.273 58.1879 289.35 57.2441 289.345 55.7041C289.339 54.1441 288.256 53.1679 286.996 53.1723C285.736 53.1767 284.659 54.1604 284.665 55.7204ZM294.867 57.1849L294.855 53.845C294.854 53.565 294.693 53.4055 294.413 53.4065L293.653 53.4091L293.643 50.5092L296.843 50.498C297.863 50.4945 298.305 50.933 298.308 51.9529L298.324 56.5329C298.328 57.4929 298.709 57.8916 299.429 57.8891C300.909 57.8839 301.605 56.5815 301.599 55.0415L301.583 50.4816L305.043 50.4695L305.067 57.4295C305.068 57.7095 305.229 57.8689 305.509 57.868L306.269 57.8653L306.279 60.7653L303.219 60.7759C302.279 60.7792 301.758 60.321 301.755 59.621L301.755 59.481C301.754 59.381 301.774 59.2409 301.774 59.2409L301.734 59.2411C301.178 60.343 299.92 61.0274 298.54 61.0322C296.5 61.0393 294.877 60.0849 294.867 57.1849ZM308.239 60.7585L308.215 53.7985C308.214 53.5185 308.054 53.3591 307.774 53.3601L307.014 53.3627L307.004 50.4627L310.084 50.452C311.024 50.4487 311.525 50.907 311.528 51.607L311.528 51.747C311.528 51.847 311.509 51.9871 311.509 51.9871L311.549 51.9869C312.026 51.1853 312.983 50.2019 314.803 50.1956C316.883 50.1884 318.506 51.1427 318.516 54.0427L318.528 57.3827C318.529 57.6627 318.689 57.8221 318.969 57.8212L319.729 57.8185L319.739 60.7185L316.539 60.7296C315.519 60.7332 315.078 60.2947 315.074 59.2747L315.058 54.6947C315.055 53.7347 314.674 53.3361 313.914 53.3387C312.834 53.3425 312.176 53.9448 311.879 54.8258C311.74 55.2263 311.682 55.6865 311.684 56.1865L311.699 60.7465L308.239 60.7585ZM321.644 56.9119L321.631 53.1119L320.311 53.1165L320.301 50.4165L321.721 50.4116L321.712 47.6316L325.072 47.6199L325.081 50.3999L327.241 50.3924L327.251 53.0924L325.091 53.0999L325.102 56.4398C325.106 57.5998 326.287 57.7557 326.947 57.7534C327.227 57.7525 327.407 57.7318 327.407 57.7318L327.417 60.7318C327.417 60.7318 327.038 60.7931 326.478 60.7951C324.838 60.8008 321.656 60.3718 321.644 56.9119ZM328.441 59.0483L329.973 56.8229C329.973 56.8229 331.418 58.2979 332.998 58.2924C333.498 58.2907 333.778 58.1497 333.776 57.7897C333.773 56.9297 328.612 56.6676 328.601 53.3277C328.593 51.1077 330.65 50.1405 332.83 50.1329C334.51 50.1271 336.831 50.599 336.838 52.459L336.842 53.679L333.842 53.6894L333.84 53.1894C333.839 52.9094 333.399 52.711 332.899 52.7127C332.419 52.7144 331.979 52.8759 331.98 53.1959C331.984 54.2559 337.204 54.0978 337.216 57.5577C337.223 59.6377 335.407 60.904 333.007 60.9124C330.047 60.9227 328.441 59.0483 328.441 59.0483Z" fill="#F3F0EB"/>
<path d="M427.649 61.9934L427.609 50.6935L426.309 50.698L426.299 47.698L433.239 47.6739C436.019 47.6642 437.906 49.6977 437.916 52.5777C437.926 55.4577 436.053 57.5442 433.273 57.5538L431.213 57.561L431.229 61.981L427.649 61.9934ZM431.203 54.561L432.543 54.5564C433.703 54.5523 434.26 53.7304 434.256 52.5904C434.252 51.4504 433.689 50.6724 432.589 50.6762L431.189 50.681L431.203 54.561ZM440.149 50.4499L440.139 47.6499L443.039 47.6398L443.049 50.4398L440.149 50.4499ZM439.924 60.4907L439.904 54.9908C439.903 54.7108 439.743 54.5513 439.463 54.5523L438.703 54.555L438.693 51.655L441.893 51.6438C442.913 51.6403 443.354 52.0788 443.358 53.0988L443.377 58.5987C443.378 58.8787 443.539 59.0382 443.819 59.0372L444.579 59.0346L444.589 61.9345L441.389 61.9457C440.369 61.9492 439.927 61.5107 439.924 60.4907ZM445.367 61.9318L445.361 60.2118L449.304 55.4581C449.822 54.8163 450.201 54.515 450.201 54.515L450.201 54.475C450.201 54.475 449.941 54.5159 449.301 54.5181L448.921 54.5194C448.641 54.5204 448.482 54.681 448.483 54.961L448.484 55.381L445.384 55.3917L445.376 53.0917C445.373 52.0718 445.811 51.6302 446.831 51.6267L454.711 51.5993L454.717 53.3393L450.794 58.0929C450.296 58.7147 449.877 59.0361 449.877 59.0361L449.877 59.0761C449.877 59.0761 450.137 59.0152 450.797 59.0129L451.557 59.0103C451.837 59.0093 451.996 58.8488 451.995 58.5688L451.994 58.1488L455.094 58.138L455.102 60.438C455.105 61.458 454.667 61.8995 453.647 61.9031L445.367 61.9318ZM455.796 61.8956L455.791 60.1756L459.734 55.4219C460.252 54.7801 460.631 54.4787 460.631 54.4787L460.631 54.4387C460.631 54.4387 460.371 54.4796 459.731 54.4819L459.351 54.4832C459.071 54.4842 458.911 54.6447 458.912 54.9247L458.914 55.3447L455.814 55.3555L455.806 53.0555C455.802 52.0355 456.241 51.594 457.261 51.5904L465.141 51.563L465.147 53.303L461.223 58.0567C460.725 58.6784 460.306 58.9999 460.306 58.9999L460.307 59.0399C460.307 59.0399 460.566 58.979 461.226 58.9767L461.986 58.974C462.266 58.9731 462.426 58.8125 462.425 58.5325L462.423 58.1125L465.523 58.1017L465.531 60.4017C465.535 61.4217 465.096 61.8633 464.076 61.8668L455.796 61.8956ZM466.435 58.7786C466.425 55.7186 470.804 55.3634 472.404 55.3578L472.544 55.3573L472.543 55.2373C472.54 54.2573 472.078 53.8989 471.218 53.9019C470.778 53.9035 470.319 54.0051 470.32 54.4051L470.322 54.865L467.122 54.8762L467.118 53.7362C467.11 51.4362 470.029 51.306 471.209 51.3019C474.809 51.2894 475.996 53.1253 476.004 55.4853L476.014 58.4853C476.015 58.7653 476.176 58.9247 476.456 58.9238L477.216 58.9211L477.226 61.8211L474.226 61.8315C473.226 61.835 472.864 61.2163 472.862 60.7563C472.862 60.6763 472.862 60.5763 472.862 60.5763L472.822 60.5764C472.822 60.5764 472.107 62.0789 469.947 62.0864C468.027 62.0931 466.442 60.8186 466.435 58.7786ZM469.915 58.5865C469.916 59.0665 470.218 59.4454 470.898 59.4431C471.798 59.4399 472.594 58.4572 472.591 57.6172L472.591 57.4572L472.271 57.4583C471.171 57.4621 469.912 57.7665 469.915 58.5865ZM483.314 59.6799L485.285 57.1731C485.285 57.1731 486.771 58.8479 488.571 58.8416C489.291 58.8391 490.01 58.5766 490.007 57.7766C490.002 56.1967 483.521 56.0392 483.505 51.5592C483.496 48.9792 485.75 47.2514 488.59 47.2415C490.49 47.2349 493.154 48.1456 493.161 50.3256L493.167 51.8856L489.967 51.8967L489.964 51.2768C489.963 50.7568 489.222 50.4393 488.562 50.4416C487.842 50.4441 487.103 50.7467 487.105 51.4067C487.111 53.1467 493.59 52.8842 493.606 57.5841C493.615 59.9641 491.762 62.0106 488.542 62.0218C485.182 62.0334 483.314 59.6799 483.314 59.6799ZM494.775 58.6801C494.764 55.6201 499.143 55.2649 500.743 55.2593L500.883 55.2588L500.883 55.1388C500.879 54.1588 500.418 53.8004 499.558 53.8034C499.118 53.8049 498.659 53.9065 498.66 54.3065L498.662 54.7665L495.462 54.7777L495.458 53.6377C495.45 51.3377 498.369 51.2075 499.549 51.2034C503.149 51.1909 504.335 53.0268 504.344 55.3868L504.354 58.3868C504.355 58.6668 504.516 58.8262 504.796 58.8252L505.556 58.8226L505.566 61.7226L502.566 61.733C501.566 61.7365 501.204 61.1177 501.202 60.6577C501.202 60.5777 501.201 60.4777 501.201 60.4777L501.161 60.4779C501.161 60.4779 500.447 61.9804 498.287 61.9879C496.367 61.9946 494.782 60.7201 494.775 58.6801ZM498.254 58.488C498.256 58.968 498.557 59.3469 499.237 59.3446C500.137 59.3414 500.934 58.3587 500.931 57.5187L500.931 57.3587L500.611 57.3598C499.511 57.3636 498.252 57.668 498.254 58.488ZM509.309 61.7096L506.625 54.6389C506.544 54.4191 506.423 54.3196 506.183 54.3204L505.923 54.3213L505.913 51.4213L508.113 51.4137C508.853 51.4111 509.334 51.7094 509.516 52.2488L511.092 56.8833C511.315 57.5426 511.478 58.542 511.478 58.542L511.518 58.5419C511.518 58.5419 511.675 57.5413 511.892 56.8806L513.416 52.2352C513.594 51.6946 514.113 51.3928 514.833 51.3903L516.853 51.3833L516.863 54.2833L516.603 54.2842C516.363 54.285 516.204 54.3856 516.124 54.6058L513.529 61.6949L509.309 61.7096ZM518.957 50.176L518.947 47.376L521.847 47.3659L521.857 50.1659L518.957 50.176ZM518.732 60.2168L518.713 54.7168C518.712 54.4368 518.551 54.2774 518.271 54.2784L517.511 54.281L517.501 51.381L520.701 51.3699C521.721 51.3664 522.162 51.8048 522.166 52.8248L522.185 58.3248C522.186 58.6048 522.347 58.7642 522.627 58.7633L523.387 58.7606L523.397 61.6606L520.197 61.6717C519.177 61.6753 518.735 61.2368 518.732 60.2168ZM525.415 61.6536L525.391 54.6936C525.39 54.4136 525.229 54.2542 524.949 54.2552L524.189 54.2578L524.179 51.3578L527.259 51.3471C528.199 51.3439 528.701 51.8021 528.703 52.5021L528.704 52.6421C528.704 52.7421 528.685 52.8822 528.685 52.8822L528.725 52.882C529.202 52.0804 530.158 51.097 531.978 51.0907C534.058 51.0835 535.682 52.0378 535.692 54.9378L535.703 58.2778C535.704 58.5578 535.865 58.7173 536.145 58.7163L536.905 58.7136L536.915 61.6136L533.715 61.6247C532.695 61.6283 532.253 61.1898 532.25 60.1698L532.234 55.5899C532.231 54.6299 531.849 54.2312 531.089 54.2338C530.009 54.2376 529.351 54.8399 529.054 55.7209C528.916 56.1214 528.857 56.5816 528.859 57.0816L528.875 61.6416L525.415 61.6536ZM537.734 56.1307C537.725 53.5108 539.216 51.0656 542.336 51.0547C544.436 51.0474 545.32 52.2443 545.32 52.2443L545.36 52.2442C545.36 52.2442 545.36 52.1842 545.36 52.1042C545.359 51.8242 545.677 51.2831 546.457 51.2804L549.577 51.2695L549.587 54.1695L548.867 54.172C548.607 54.1729 548.428 54.3136 548.428 54.5536L548.45 60.6335C548.463 64.3935 545.467 65.7839 542.647 65.7937C541.267 65.7985 539.746 65.4038 538.744 64.8873L539.735 62.1838C539.735 62.1838 540.997 62.8394 542.617 62.8338C543.857 62.8295 544.996 62.3655 544.99 60.8455L544.99 60.6855C544.989 60.5655 545.008 60.3055 545.008 60.3055L544.968 60.3056C544.371 60.9677 543.592 61.2904 542.392 61.2946C539.292 61.3054 537.743 58.7707 537.734 56.1307ZM543.202 58.4117C544.102 58.4086 545.06 57.9453 545.054 56.1453C545.048 54.3253 544.086 53.9286 543.046 53.9323C541.826 53.9365 541.209 54.8187 541.213 55.9986C541.218 57.2786 541.822 58.4165 543.202 58.4117ZM550.401 59.9267L551.934 57.7014C551.934 57.7014 553.379 59.1764 554.959 59.1709C555.459 59.1691 555.738 59.0282 555.737 58.6682C555.734 57.8082 550.573 57.5461 550.562 54.2061C550.554 51.9862 552.611 51.019 554.791 51.0114C556.471 51.0056 558.792 51.4775 558.799 53.3375L558.803 54.5575L555.803 54.5679L555.801 54.0679C555.8 53.7879 555.359 53.5895 554.859 53.5912C554.379 53.5929 553.94 53.7544 553.941 54.0744C553.945 55.1344 559.164 54.9762 559.176 58.4362C559.184 60.5162 557.368 61.7825 554.968 61.7909C552.008 61.8012 550.401 59.9267 550.401 59.9267Z" fill="#F3F0EB"/>
<g clip-path="url(#clip0_2578_83617)">
<path d="M382.861 47.9352C382.861 47.9352 382.941 47.8652 382.971 47.8352C383.431 47.3952 383.961 47.0452 384.531 46.7652C384.831 46.6252 385.151 46.5052 385.471 46.4152C385.721 46.3452 385.981 46.2952 386.241 46.2552C386.621 46.1952 387.001 46.1952 387.391 46.2052C387.641 46.2152 387.901 46.2452 388.151 46.2952C388.531 46.3652 388.901 46.4652 389.261 46.6152C389.751 46.8052 390.211 47.0652 390.631 47.3852C391.071 47.7152 391.461 48.0952 391.791 48.5352C392.061 48.8852 392.291 49.2752 392.471 49.6752C392.681 50.1352 392.831 50.6152 392.911 51.1152C392.961 51.4252 393.001 51.7252 392.991 52.0352C392.991 52.2352 392.991 52.4352 392.971 52.6352C392.951 52.9852 392.891 53.3352 392.791 53.6752C392.741 53.8752 392.671 54.0652 392.601 54.2652C392.541 54.4352 392.451 54.5952 392.381 54.7652C392.211 55.1552 391.971 55.5052 391.711 55.8352C391.461 56.1652 391.161 56.4452 390.871 56.7352C390.571 57.0352 390.271 57.3352 389.971 57.6352C388.461 59.1452 386.961 60.6452 385.451 62.1552C384.981 62.6252 384.511 63.0952 384.041 63.5552C383.921 63.6752 383.801 63.7852 383.651 63.8652C383.391 64.0152 383.101 64.0852 382.801 64.0752C382.371 64.0652 382.001 63.8952 381.691 63.5952C379.581 61.4852 377.461 59.3652 375.351 57.2552C375.041 56.9452 374.721 56.6352 374.411 56.3152C374.051 55.9552 373.751 55.5552 373.501 55.1152C373.171 54.5452 372.951 53.9452 372.821 53.3052C372.771 53.0352 372.731 52.7652 372.721 52.4852C372.721 52.3452 372.721 52.2052 372.711 52.0652C372.711 51.8452 372.731 51.6252 372.751 51.4052C372.791 51.0652 372.861 50.7252 372.961 50.3952C373.031 50.1752 373.121 49.9552 373.211 49.7352C373.321 49.4652 373.461 49.2052 373.621 48.9652C373.831 48.6352 374.071 48.3352 374.331 48.0552C374.561 47.8152 374.811 47.5952 375.071 47.3952C375.581 47.0152 376.141 46.7152 376.751 46.5152C376.951 46.4452 377.151 46.3952 377.361 46.3452C377.541 46.3052 377.721 46.2852 377.901 46.2552C378.251 46.1952 378.611 46.2052 378.961 46.2152C379.101 46.2152 379.241 46.2452 379.391 46.2552C379.621 46.2752 379.851 46.3252 380.081 46.3752C380.501 46.4752 380.901 46.6252 381.281 46.8152C381.781 47.0652 382.231 47.3752 382.641 47.7452C382.701 47.8052 382.771 47.8652 382.841 47.9352L382.861 47.9352Z" fill="#099166"/>
</g>
<g clip-path="url(#clip1_2578_83617)">
<path d="M203.861 47.9352C203.861 47.9352 203.941 47.8652 203.971 47.8352C204.431 47.3952 204.961 47.0452 205.531 46.7652C205.831 46.6252 206.151 46.5052 206.471 46.4152C206.721 46.3452 206.981 46.2952 207.241 46.2552C207.621 46.1952 208.001 46.1952 208.391 46.2052C208.641 46.2152 208.901 46.2452 209.151 46.2952C209.531 46.3652 209.901 46.4652 210.261 46.6152C210.751 46.8052 211.211 47.0652 211.631 47.3852C212.071 47.7152 212.461 48.0952 212.791 48.5352C213.061 48.8852 213.291 49.2752 213.471 49.6752C213.681 50.1352 213.831 50.6152 213.911 51.1152C213.961 51.4252 214.001 51.7252 213.991 52.0352C213.991 52.2352 213.991 52.4352 213.971 52.6352C213.951 52.9852 213.891 53.3352 213.791 53.6752C213.741 53.8752 213.671 54.0652 213.601 54.2652C213.541 54.4352 213.451 54.5952 213.381 54.7652C213.211 55.1552 212.971 55.5052 212.711 55.8352C212.461 56.1652 212.161 56.4452 211.871 56.7352C211.571 57.0352 211.271 57.3352 210.971 57.6352C209.461 59.1452 207.961 60.6452 206.451 62.1552C205.981 62.6252 205.511 63.0952 205.041 63.5552C204.921 63.6752 204.801 63.7852 204.651 63.8652C204.391 64.0152 204.101 64.0852 203.801 64.0752C203.371 64.0652 203.001 63.8952 202.691 63.5952C200.581 61.4852 198.461 59.3652 196.351 57.2552C196.041 56.9452 195.721 56.6352 195.411 56.3152C195.051 55.9552 194.751 55.5552 194.501 55.1152C194.171 54.5452 193.951 53.9452 193.821 53.3052C193.771 53.0352 193.731 52.7652 193.721 52.4852C193.721 52.3452 193.721 52.2052 193.711 52.0652C193.711 51.8452 193.731 51.6252 193.751 51.4052C193.791 51.0652 193.861 50.7252 193.961 50.3952C194.031 50.1752 194.121 49.9552 194.211 49.7352C194.321 49.4652 194.461 49.2052 194.621 48.9652C194.831 48.6352 195.071 48.3352 195.331 48.0552C195.561 47.8152 195.811 47.5952 196.071 47.3952C196.581 47.0152 197.141 46.7152 197.751 46.5152C197.951 46.4452 198.151 46.3952 198.361 46.3452C198.541 46.3052 198.721 46.2852 198.901 46.2552C199.251 46.1952 199.611 46.2052 199.961 46.2152C200.101 46.2152 200.241 46.2452 200.391 46.2552C200.621 46.2752 200.851 46.3252 201.081 46.3752C201.501 46.4752 201.901 46.6252 202.281 46.8152C202.781 47.0652 203.231 47.3752 203.641 47.7452C203.701 47.8052 203.771 47.8652 203.841 47.9352L203.861 47.9352Z" fill="#099166"/>
</g>
<defs>
<clipPath id="clip0_2578_83617">
<rect width="17.87" height="20.28" fill="white" transform="translate(372.723 64.0752) rotate(-90)"/>
</clipPath>
<clipPath id="clip1_2578_83617">
<rect width="17.87" height="20.28" fill="white" transform="translate(193.723 64.0752) rotate(-90)"/>
</clipPath>
</defs>
</svg>
