<svg width="117" height="102" viewBox="0 0 117 102" fill="none" xmlns="http://www.w3.org/2000/svg">
<g clip-path="url(#clip0_2578_83627)">
<path d="M33.075 35.8102H19.535C10.195 35.8102 2.625 28.2402 2.625 18.9002C2.625 9.56023 10.195 1.99023 19.535 1.99023H97.445C106.785 1.99023 114.355 9.56023 114.355 18.9002C114.355 28.2402 106.785 35.8102 97.445 35.8102H60.615" stroke="#099266" stroke-width="4" stroke-linecap="round" stroke-linejoin="round"/>
<path d="M39.0261 87.0802L17.4261 65.4802C16.6861 64.7402 16.6861 63.5402 17.4261 62.8102L20.4261 59.8102C23.2561 56.9802 27.8561 56.9802 30.6861 59.8102L35.8261 64.9502C37.0561 66.1802 39.1661 65.3102 39.1661 63.5702V22.9602C39.1661 19.6502 41.8461 16.9702 45.1561 16.9702H48.4261C51.7361 16.9702 54.4161 19.6502 54.4161 22.9602V46.7102C54.4161 47.6402 55.0661 48.4402 55.9761 48.6302L80.0761 53.5902C80.9861 53.7802 81.6361 54.5802 81.6361 55.5102V97.8502C81.6361 98.9302 80.7561 99.8102 79.6761 99.8102H41.3161C40.2161 99.8102 39.3361 98.9002 39.3561 97.8102L39.5861 88.5202C39.5961 87.9802 39.3961 87.4702 39.0161 87.0902L39.0261 87.0802Z" stroke="#099566" stroke-width="4" stroke-linecap="round" stroke-linejoin="round"/>
<path d="M39.6055 88.5098H66.7355" stroke="#099566" stroke-width="4" stroke-linecap="round" stroke-linejoin="round"/>
<path d="M72.7383 88.5098H75.1783" stroke="#099566" stroke-width="4" stroke-linecap="round" stroke-linejoin="round"/>
<path d="M92.8786 12.7898C92.9286 12.7698 92.9686 12.7498 93.0086 12.7298C93.5886 12.4498 94.1886 12.2798 94.8286 12.1998C95.1586 12.1598 95.4986 12.1398 95.8286 12.1498C96.0886 12.1498 96.3486 12.1898 96.6086 12.2298C96.9886 12.2898 97.3586 12.3998 97.7086 12.5398C97.9486 12.6298 98.1786 12.7398 98.4086 12.8598C98.7486 13.0398 99.0686 13.2598 99.3686 13.4998C99.7786 13.8398 100.139 14.2198 100.439 14.6498C100.759 15.0998 101.009 15.5798 101.189 16.0998C101.339 16.5198 101.439 16.9498 101.489 17.3998C101.549 17.8998 101.539 18.3998 101.469 18.9098C101.419 19.2198 101.369 19.5198 101.259 19.8098C101.189 19.9998 101.129 20.1898 101.059 20.3798C100.929 20.7098 100.769 21.0198 100.569 21.3098C100.459 21.4798 100.339 21.6498 100.209 21.8098C100.099 21.9498 99.9686 22.0798 99.8386 22.2198C99.5586 22.5398 99.2186 22.7898 98.8686 23.0298C98.5286 23.2598 98.1586 23.4398 97.7886 23.6298C97.4086 23.8298 97.0286 24.0198 96.6586 24.2098C94.7686 25.1798 92.8686 26.1498 90.9786 27.1198C90.3886 27.4198 89.7986 27.7198 89.2086 28.0298C89.0586 28.1098 88.9086 28.1698 88.7386 28.2098C88.4386 28.2698 88.1486 28.2498 87.8686 28.1498C87.4586 27.9998 87.1586 27.7398 86.9586 27.3498C85.5986 24.6898 84.2386 22.0298 82.8686 19.3698C82.6686 18.9798 82.4586 18.5798 82.2586 18.1898C82.0286 17.7398 81.8686 17.2598 81.7586 16.7698C81.6186 16.1298 81.5886 15.4898 81.6686 14.8398C81.6986 14.5698 81.7486 14.2898 81.8286 14.0298C81.8686 13.8998 81.9086 13.7598 81.9486 13.6298C82.0186 13.4198 82.0986 13.2198 82.1886 13.0198C82.3286 12.7098 82.4986 12.4098 82.6986 12.1298C82.8386 11.9398 82.9886 11.7598 83.1386 11.5698C83.3286 11.3398 83.5386 11.1498 83.7686 10.9598C84.0686 10.7098 84.3886 10.4998 84.7286 10.3098C85.0186 10.1498 85.3286 10.0198 85.6386 9.90984C86.2486 9.69984 86.8686 9.58984 87.5086 9.58984C87.7186 9.58984 87.9286 9.58984 88.1386 9.61984C88.3186 9.63984 88.4986 9.66984 88.6786 9.69984C89.0286 9.74984 89.3686 9.86984 89.6986 9.97984C89.8386 10.0298 89.9586 10.0998 90.0886 10.1498C90.3086 10.2398 90.5086 10.3598 90.7086 10.4798C91.0786 10.6998 91.4086 10.9698 91.7186 11.2698C92.1186 11.6598 92.4486 12.0898 92.7286 12.5698C92.7686 12.6498 92.8086 12.7198 92.8586 12.8098L92.8786 12.7898Z" fill="#099266"/>
</g>
<defs>
<clipPath id="clip0_2578_83627">
<rect width="115.73" height="101.8" fill="white" transform="translate(0.636719)"/>
</clipPath>
</defs>
</svg>
