<svg width="171" height="120" viewBox="0 0 171 120" fill="none" xmlns="http://www.w3.org/2000/svg">
<circle cx="85" cy="60" r="60" fill="#FF3A44"/>
<path d="M64.5414 59V55.25H68.2914V47.8C68.2914 47.125 68.3164 46.425 68.3164 46.425H68.2664C68.2664 46.425 68.0414 46.925 67.5664 47.375L66.4914 48.35L63.9664 45.65L68.7914 41.125H72.7664V55.25H76.5414V59H64.5414ZM84.8027 59.3C79.7277 59.3 78.0777 55.15 78.0777 50.025C78.0777 44.9 79.7277 40.825 84.8027 40.825C89.8777 40.825 91.5277 44.9 91.5277 50.025C91.5277 55.15 89.8777 59.3 84.8027 59.3ZM84.8027 55.3C86.5277 55.3 87.0277 52.95 87.0277 50.025C87.0277 47.125 86.5277 44.825 84.8027 44.825C83.0777 44.825 82.5777 47.125 82.5777 50.025C82.5777 52.95 83.0777 55.3 84.8027 55.3ZM100.306 59.3C95.2307 59.3 93.5807 55.15 93.5807 50.025C93.5807 44.9 95.2307 40.825 100.306 40.825C105.381 40.825 107.031 44.9 107.031 50.025C107.031 55.15 105.381 59.3 100.306 59.3ZM100.306 55.3C102.031 55.3 102.531 52.95 102.531 50.025C102.531 47.125 102.031 44.825 100.306 44.825C98.5807 44.825 98.0807 47.125 98.0807 50.025C98.0807 52.95 98.5807 55.3 100.306 55.3ZM47.7655 89V75.3C47.7655 74.95 47.5655 74.75 47.2155 74.75H46.2655V71.125H49.9905C51.2405 71.125 51.6655 71.7 51.6655 72.25C51.6655 72.4 51.6655 72.475 51.6655 72.475H51.7155C51.7155 72.475 52.8405 70.825 55.5655 70.825C59.0655 70.825 61.3655 73.575 61.3655 77.575C61.3655 81.65 58.7905 84.3 55.3655 84.3C53.2655 84.3 52.0905 83.2 52.0905 83.2H52.0405C52.0405 83.2 52.0905 83.65 52.0905 84.3V89H47.7655ZM51.9655 77.65C51.9655 79.2 52.7905 80.725 54.4905 80.725C55.8405 80.725 57.0155 79.625 57.0155 77.65C57.0155 75.725 55.9905 74.475 54.4905 74.475C53.1905 74.475 51.9655 75.425 51.9655 77.65ZM62.6265 77.6C62.6265 73.55 65.8515 70.825 69.8765 70.825C73.9515 70.825 77.1765 73.55 77.1765 77.6C77.1765 81.625 73.9515 84.3 69.9015 84.3C65.8515 84.3 62.6265 81.625 62.6265 77.6ZM66.9765 77.6C66.9765 79.525 68.3265 80.7 69.9015 80.7C71.4765 80.7 72.8265 79.525 72.8265 77.6C72.8265 75.65 71.4765 74.425 69.9015 74.425C68.3265 74.425 66.9765 75.65 66.9765 77.6ZM80.1724 69.625V66.125H83.7974V69.625H80.1724ZM79.8474 82.175V75.3C79.8474 74.95 79.6474 74.75 79.2974 74.75H78.3474V71.125H82.3474C83.6224 71.125 84.1724 71.675 84.1724 72.95V79.825C84.1724 80.175 84.3724 80.375 84.7224 80.375H85.6724V84H81.6724C80.3974 84 79.8474 83.45 79.8474 82.175ZM88.1952 84V75.3C88.1952 74.95 87.9952 74.75 87.6452 74.75H86.6952V71.125H90.5452C91.7202 71.125 92.3452 71.7 92.3452 72.575V72.75C92.3452 72.875 92.3202 73.05 92.3202 73.05H92.3702C92.9702 72.05 94.1702 70.825 96.4452 70.825C99.0452 70.825 101.07 72.025 101.07 75.65V79.825C101.07 80.175 101.27 80.375 101.62 80.375H102.57V84H98.5702C97.2952 84 96.7452 83.45 96.7452 82.175V76.45C96.7452 75.25 96.2702 74.75 95.3202 74.75C93.9702 74.75 93.1452 75.5 92.7702 76.6C92.5952 77.1 92.5202 77.675 92.5202 78.3V84H88.1952ZM104.968 79.25V74.5H103.318V71.125H105.093V67.65H109.293V71.125H111.993V74.5H109.293V78.675C109.293 80.125 110.768 80.325 111.593 80.325C111.943 80.325 112.168 80.3 112.168 80.3V84.05C112.168 84.05 111.693 84.125 110.993 84.125C108.943 84.125 104.968 83.575 104.968 79.25ZM113.454 81.95L115.379 79.175C115.379 79.175 117.179 81.025 119.154 81.025C119.779 81.025 120.129 80.85 120.129 80.4C120.129 79.325 113.679 78.975 113.679 74.8C113.679 72.025 116.254 70.825 118.979 70.825C121.079 70.825 123.979 71.425 123.979 73.75V75.275H120.229V74.65C120.229 74.3 119.679 74.05 119.054 74.05C118.454 74.05 117.904 74.25 117.904 74.65C117.904 75.975 124.429 75.8 124.429 80.125C124.429 82.725 122.154 84.3 119.154 84.3C115.454 84.3 113.454 81.95 113.454 81.95Z" fill="#F3F0EB"/>
<path d="M77.5555 31V29.71H77.7655C78.0355 29.71 78.1705 29.65 78.2605 29.38L81.5755 20.41H83.1505L86.4655 29.38C86.5555 29.65 86.7055 29.71 86.9605 29.71H87.1855V31H86.3455C85.5955 31 85.3555 30.82 85.1155 30.13L84.3205 27.955H80.4205L79.6255 30.13C79.3705 30.82 79.1305 31 78.3805 31H77.5555ZM80.7805 26.695H83.9455L82.7905 23.47C82.5955 22.915 82.3705 21.985 82.3705 21.985H82.3405C82.3405 21.985 82.1305 22.915 81.9355 23.47L80.7805 26.695ZM88.6861 28.225V24.58H87.6961V23.41H88.7161V21.325H90.1411V23.41H91.9561V24.58H90.1411V28.06C90.1411 29.575 91.1911 29.77 91.7461 29.77C91.9561 29.77 92.0911 29.74 92.0911 29.74V31.03C92.0911 31.03 91.8961 31.06 91.5811 31.06C90.6211 31.06 88.6861 30.76 88.6861 28.225Z" fill="#606161"/>
<path d="M77.5555 31V29.71H77.7655C78.0355 29.71 78.1705 29.65 78.2605 29.38L81.5755 20.41H83.1505L86.4655 29.38C86.5555 29.65 86.7055 29.71 86.9605 29.71H87.1855V31H86.3455C85.5955 31 85.3555 30.82 85.1155 30.13L84.3205 27.955H80.4205L79.6255 30.13C79.3705 30.82 79.1305 31 78.3805 31H77.5555ZM80.7805 26.695H83.9455L82.7905 23.47C82.5955 22.915 82.3705 21.985 82.3705 21.985H82.3405C82.3405 21.985 82.1305 22.915 81.9355 23.47L80.7805 26.695ZM88.6861 28.225V24.58H87.6961V23.41H88.7161V21.325H90.1411V23.41H91.9561V24.58H90.1411V28.06C90.1411 29.575 91.1911 29.77 91.7461 29.77C91.9561 29.77 92.0911 29.74 92.0911 29.74V31.03C92.0911 31.03 91.8961 31.06 91.5811 31.06C90.6211 31.06 88.6861 30.76 88.6861 28.225Z" fill="black" fill-opacity="0.2"/>
</svg>
