<svg width="21" height="21" viewBox="0 0 21 21" fill="none" xmlns="http://www.w3.org/2000/svg">
<path d="M10.0535 10.5376C10.4584 10.5376 10.804 10.3945 11.0902 10.1083C11.3765 9.82207 11.5196 9.4765 11.5196 9.07159C11.5196 8.66668 11.3765 8.32111 11.0902 8.03488C10.804 7.74865 10.4584 7.60554 10.0535 7.60554C9.64861 7.60554 9.30304 7.74865 9.01681 8.03488C8.73058 8.32111 8.58747 8.66668 8.58747 9.07159C8.58747 9.4765 8.73058 9.82207 9.01681 10.1083C9.30304 10.3945 9.64861 10.5376 10.0535 10.5376ZM10.0745 18.8732C9.97673 18.8732 9.88597 18.8592 9.8022 18.8313C9.71842 18.8034 9.64163 18.7615 9.57182 18.7057C7.49142 16.8766 5.93461 15.1801 4.90139 13.6164C3.86817 12.0526 3.35156 10.5935 3.35156 9.23914C3.35156 7.14477 4.02525 5.47627 5.37262 4.23361C6.72 2.99096 8.2803 2.36963 10.0535 2.36963C11.8267 2.36963 13.387 2.99096 14.7344 4.23361C16.0818 5.47627 16.7555 7.14477 16.7555 9.23914C16.7555 10.5935 16.2389 12.0526 15.2057 13.6164C14.1724 15.1801 12.6156 16.8766 10.5352 18.7057C10.4654 18.7615 10.3921 18.8034 10.3153 18.8313C10.2385 18.8592 10.1582 18.8732 10.0745 18.8732Z" fill="#EE3124"/>
</svg>
