<svg width="16" height="16" viewBox="0 0 16 16" fill="none" xmlns="http://www.w3.org/2000/svg">
<g id="Vector">
<path d="M10.1094 10.1094L14.3281 14.3281M6.59375 11.5156C5.9474 11.5156 5.30738 11.3883 4.71023 11.141C4.11308 10.8936 3.5705 10.5311 3.11346 10.074C2.65642 9.617 2.29388 9.07442 2.04653 8.47727C1.79918 7.88012 1.67188 7.2401 1.67188 6.59375C1.67188 5.9474 1.79918 5.30738 2.04653 4.71023C2.29388 4.11308 2.65642 3.5705 3.11346 3.11346C3.5705 2.65642 4.11308 2.29388 4.71023 2.04653C5.30738 1.79918 5.9474 1.67187 6.59375 1.67188C7.89911 1.67188 9.15101 2.19043 10.074 3.11346C10.9971 4.03649 11.5156 5.28839 11.5156 6.59375C11.5156 7.89911 10.9971 9.15101 10.074 10.074C9.15101 10.9971 7.89911 11.5156 6.59375 11.5156Z" stroke="#ffffff" stroke-width="2.25" stroke-linecap="round" stroke-linejoin="round"/>
<path d="M10.1094 10.1094L14.3281 14.3281M6.59375 11.5156C5.9474 11.5156 5.30738 11.3883 4.71023 11.141C4.11308 10.8936 3.5705 10.5311 3.11346 10.074C2.65642 9.617 2.29388 9.07442 2.04653 8.47727C1.79918 7.88012 1.67188 7.2401 1.67188 6.59375C1.67188 5.9474 1.79918 5.30738 2.04653 4.71023C2.29388 4.11308 2.65642 3.5705 3.11346 3.11346C3.5705 2.65642 4.11308 2.29388 4.71023 2.04653C5.30738 1.79918 5.9474 1.67187 6.59375 1.67188C7.89911 1.67188 9.15101 2.19043 10.074 3.11346C10.9971 4.03649 11.5156 5.28839 11.5156 6.59375C11.5156 7.89911 10.9971 9.15101 10.074 10.074C9.15101 10.9971 7.89911 11.5156 6.59375 11.5156Z" stroke="#ffffff" stroke-opacity="0.2" stroke-width="2.25" stroke-linecap="round" stroke-linejoin="round"/>
</g>
</svg>
